<svg width="37" height="19" viewBox="0 0 37 19" fill="none" xmlns="http://www.w3.org/2000/svg">
<path d="M35.6473 6.33122L29.6803 0.445282C29.537 0.304187 29.3665 0.192197 29.1786 0.115772C28.9907 0.039347 28.7892 0 28.5856 0C28.3821 0 28.1806 0.039347 27.9927 0.115772C27.8048 0.192197 27.6343 0.304187 27.4909 0.445282V0.445282C27.2038 0.727329 27.0426 1.10886 27.0426 1.50656C27.0426 1.90425 27.2038 2.28579 27.4909 2.56783L32.9799 7.97206H1.54184C1.13292 7.97206 0.740744 8.13066 0.451593 8.41297C0.162443 8.69528 0 9.07817 0 9.47742H0C0 9.87667 0.162443 10.2596 0.451593 10.5419C0.740744 10.8242 1.13292 10.9828 1.54184 10.9828H33.0724L27.4909 16.4171C27.3464 16.5571 27.2317 16.7235 27.1534 16.907C27.0752 17.0904 27.0349 17.2872 27.0349 17.4859C27.0349 17.6846 27.0752 17.8814 27.1534 18.0648C27.2317 18.2483 27.3464 18.4148 27.4909 18.5547C27.6343 18.6958 27.8048 18.8078 27.9927 18.8842C28.1806 18.9607 28.3821 19 28.5856 19C28.7892 19 28.9907 18.9607 29.1786 18.8842C29.3665 18.8078 29.537 18.6958 29.6803 18.5547L35.6473 12.7139C36.5135 11.8672 37 10.7193 37 9.52258C37 8.32582 36.5135 7.17799 35.6473 6.33122V6.33122Z" fill="#A0A0A0"/>
</svg>
