<svg width="136" height="40" viewBox="0 0 136 40" fill="none" xmlns="http://www.w3.org/2000/svg">
<path d="M15.7778 6C11.4829 6 8 9.48289 8 13.7778V26.2222C8 30.5171 11.4829 34 15.7778 34H28.2222C32.5171 34 36 30.5171 36 26.2222V13.7778C36 9.48289 32.5171 6 28.2222 6H15.7778ZM31.3333 9.11111C32.192 9.11111 32.8889 9.808 32.8889 10.6667C32.8889 11.5253 32.192 12.2222 31.3333 12.2222C30.4747 12.2222 29.7778 11.5253 29.7778 10.6667C29.7778 9.808 30.4747 9.11111 31.3333 9.11111ZM22 12.2222C26.2949 12.2222 29.7778 15.7051 29.7778 20C29.7778 24.2949 26.2949 27.7778 22 27.7778C17.7051 27.7778 14.2222 24.2949 14.2222 20C14.2222 15.7051 17.7051 12.2222 22 12.2222ZM22 15.3333C20.7623 15.3333 19.5753 15.825 18.7002 16.7002C17.825 17.5753 17.3333 18.7623 17.3333 20C17.3333 21.2377 17.825 22.4247 18.7002 23.2998C19.5753 24.175 20.7623 24.6667 22 24.6667C23.2377 24.6667 24.4247 24.175 25.2998 23.2998C26.175 22.4247 26.6667 21.2377 26.6667 20C26.6667 18.7623 26.175 17.5753 25.2998 16.7002C24.4247 15.825 23.2377 15.3333 22 15.3333Z" fill="#A0A0A0"/>
<path d="M45.0957 28H43.1035V13.8008H45.0957V28ZM48.416 17.8633H50.4082V28H48.416V17.8633ZM54.5684 21.8574C54.5684 21.1413 54.3828 20.5879 54.0117 20.1973C53.6406 19.8066 53.1198 19.6113 52.4492 19.6113C51.7982 19.6113 51.2936 19.7839 50.9355 20.1289C50.584 20.474 50.4082 20.959 50.4082 21.584L50.2031 19.6309C50.5156 19.0189 50.9225 18.5469 51.4238 18.2148C51.9316 17.8828 52.4915 17.7168 53.1035 17.7168C54.2038 17.7168 55.0534 18.0781 55.6523 18.8008C56.2578 19.5169 56.5605 20.5326 56.5605 21.8477V28H54.5684V21.8574ZM63.1719 28.1465C62.5729 28.1465 62.0098 28.0879 61.4824 27.9707C60.9616 27.8535 60.4733 27.6777 60.0176 27.4434C59.5618 27.209 59.1419 26.916 58.7578 26.5645L59.9395 25.1094C60.4863 25.526 61.0299 25.8385 61.5703 26.0469C62.1107 26.2552 62.6445 26.3594 63.1719 26.3594C63.9596 26.3594 64.5488 26.2389 64.9395 25.998C65.3366 25.7507 65.5352 25.3828 65.5352 24.8945C65.5352 24.569 65.4277 24.3249 65.2129 24.1621C64.998 23.9993 64.7311 23.8919 64.4121 23.8398C64.0931 23.7812 63.6439 23.7292 63.0645 23.6836C63.0124 23.6836 62.957 23.6836 62.8984 23.6836C62.8398 23.6771 62.7845 23.6706 62.7324 23.6641C62.7064 23.6641 62.6803 23.6641 62.6543 23.6641C62.6283 23.6576 62.6022 23.6543 62.5762 23.6543C61.9186 23.6022 61.362 23.5078 60.9062 23.3711C60.4505 23.2279 60.0697 22.9642 59.7637 22.5801C59.4642 22.196 59.3145 21.6458 59.3145 20.9297C59.3145 20.2135 59.4609 19.6178 59.7539 19.1426C60.0469 18.6673 60.4831 18.3125 61.0625 18.0781C61.6419 17.8372 62.3678 17.7168 63.2402 17.7168C63.7676 17.7168 64.2689 17.7656 64.7441 17.8633C65.2259 17.9609 65.6849 18.1074 66.1211 18.3027C66.5573 18.4915 66.9772 18.7324 67.3809 19.0254L66.1797 20.4805C65.6719 20.1549 65.1706 19.9108 64.6758 19.748C64.1875 19.5853 63.709 19.5039 63.2402 19.5039C62.5632 19.5039 62.0553 19.6211 61.7168 19.8555C61.3783 20.0833 61.209 20.4284 61.209 20.8906C61.209 21.1641 61.3034 21.3691 61.4922 21.5059C61.6875 21.6426 61.9316 21.7337 62.2246 21.7793C62.5176 21.8249 62.9342 21.8639 63.4746 21.8965C63.5137 21.903 63.5527 21.9062 63.5918 21.9062C63.6374 21.9062 63.6829 21.9095 63.7285 21.916C63.748 21.916 63.7676 21.916 63.7871 21.916C63.8066 21.916 63.8262 21.9193 63.8457 21.9258C64.5553 21.9714 65.1576 22.0658 65.6523 22.209C66.1536 22.3522 66.5736 22.6354 66.9121 23.0586C67.2507 23.4818 67.4199 24.0938 67.4199 24.8945C67.4199 25.6237 67.2637 26.2292 66.9512 26.7109C66.6387 27.1862 66.1667 27.5443 65.5352 27.7852C64.9102 28.026 64.1224 28.1465 63.1719 28.1465ZM72.5957 28.0488C71.7754 28.0488 71.1732 27.8242 70.7891 27.375C70.4115 26.9193 70.2227 26.2487 70.2227 25.3633V14.9141H72.2148V25.3828C72.2148 25.6302 72.2637 25.8223 72.3613 25.959C72.459 26.0892 72.6022 26.1543 72.791 26.1543H73.748V28.0488H72.5957ZM69.1777 17.8633H73.748V19.6602H69.1777V17.8633ZM82.2051 21.5742C82.2051 20.9102 82.026 20.3958 81.668 20.0312C81.3164 19.6602 80.8151 19.4746 80.1641 19.4746C79.7604 19.4746 79.3633 19.5365 78.9727 19.6602C78.5885 19.7839 78.2467 19.9564 77.9473 20.1777L76.4922 19.1816C76.8763 18.7194 77.3809 18.3613 78.0059 18.1074C78.6374 17.847 79.3372 17.7168 80.1055 17.7168C80.9453 17.7168 81.6647 17.8665 82.2637 18.166C82.8626 18.459 83.3184 18.8887 83.6309 19.4551C83.9434 20.015 84.0996 20.6921 84.0996 21.4863V28H82.2051V21.5742ZM79.7246 28.1465C78.4746 28.1465 77.5404 27.8893 76.9219 27.375C76.3034 26.8542 75.9941 26.0664 75.9941 25.0117C75.9941 24.0091 76.2773 23.2572 76.8438 22.7559C77.4102 22.2546 78.2663 22.0039 79.4121 22.0039H82.293L82.4297 23.6055H79.4219C78.901 23.6055 78.5104 23.7227 78.25 23.957C77.9961 24.1849 77.8691 24.5365 77.8691 25.0117C77.8691 25.526 78.0384 25.9069 78.377 26.1543C78.722 26.4017 79.2428 26.5254 79.9395 26.5254C80.7012 26.5254 81.2676 26.444 81.6387 26.2812C82.0163 26.1185 82.2051 25.8646 82.2051 25.5195L82.4102 26.9453C82.2344 27.2188 82.0163 27.4434 81.7559 27.6191C81.502 27.7949 81.2057 27.9251 80.8672 28.0098C80.5286 28.1009 80.1478 28.1465 79.7246 28.1465ZM90.5254 32.1211C89.7637 32.1211 89.0801 31.9779 88.4746 31.6914C87.8757 31.4115 87.4102 31.0143 87.0781 30.5L88.4258 29.2793C88.6862 29.6374 88.9954 29.9141 89.3535 30.1094C89.7181 30.3047 90.099 30.4023 90.4961 30.4023C91.2578 30.4023 91.847 30.1908 92.2637 29.7676C92.6803 29.3509 92.8887 28.7585 92.8887 27.9902V17.8633H94.8809V27.6973C94.8809 28.6283 94.7083 29.4258 94.3633 30.0898C94.0247 30.7539 93.5299 31.2585 92.8789 31.6035C92.2279 31.9486 91.4434 32.1211 90.5254 32.1211ZM90.3398 28.1758C89.5977 28.1758 88.9629 28.0163 88.4355 27.6973C87.9147 27.3717 87.5176 26.8997 87.2441 26.2812C86.9707 25.6628 86.834 24.9206 86.834 24.0547V21.8184C86.834 20.946 86.9674 20.2005 87.2344 19.582C87.5013 18.9635 87.8887 18.4948 88.3965 18.1758C88.9108 17.8503 89.526 17.6875 90.2422 17.6875C90.8411 17.6875 91.388 17.8438 91.8828 18.1562C92.3841 18.4688 92.7878 18.9082 93.0938 19.4746L92.8887 21.5449C92.8887 21.1152 92.8105 20.7474 92.6543 20.4414C92.498 20.1354 92.2702 19.9043 91.9707 19.748C91.6777 19.5853 91.3197 19.5039 90.8965 19.5039C90.2389 19.5039 89.7279 19.709 89.3633 20.1191C89.0052 20.5293 88.8262 21.1055 88.8262 21.8477V24.0547C88.8262 24.7904 89.0052 25.36 89.3633 25.7637C89.7279 26.1608 90.2389 26.3594 90.8965 26.3594C91.3197 26.3594 91.6777 26.278 91.9707 26.1152C92.2702 25.946 92.498 25.7051 92.6543 25.3926C92.8105 25.0801 92.8887 24.7057 92.8887 24.2695L93.0254 26.4082C92.8236 26.9095 92.4915 27.3294 92.0293 27.668C91.5736 28.0065 91.0104 28.1758 90.3398 28.1758ZM97.9082 17.8633H99.9004V28H97.9082V17.8633ZM103.484 20.2656C103.309 20.0508 103.087 19.888 102.82 19.7773C102.553 19.6667 102.244 19.6113 101.893 19.6113C101.261 19.6113 100.77 19.7871 100.418 20.1387C100.073 20.4837 99.9004 20.9655 99.9004 21.584L99.6953 19.6309C100.008 19.0254 100.411 18.5566 100.906 18.2246C101.401 17.8861 101.948 17.7168 102.547 17.7168C103.009 17.7168 103.426 17.7852 103.797 17.9219C104.174 18.0521 104.503 18.2474 104.783 18.5078L103.484 20.2656ZM112.166 21.5742C112.166 20.9102 111.987 20.3958 111.629 20.0312C111.277 19.6602 110.776 19.4746 110.125 19.4746C109.721 19.4746 109.324 19.5365 108.934 19.6602C108.549 19.7839 108.208 19.9564 107.908 20.1777L106.453 19.1816C106.837 18.7194 107.342 18.3613 107.967 18.1074C108.598 17.847 109.298 17.7168 110.066 17.7168C110.906 17.7168 111.626 17.8665 112.225 18.166C112.824 18.459 113.279 18.8887 113.592 19.4551C113.904 20.015 114.061 20.6921 114.061 21.4863V28H112.166V21.5742ZM109.686 28.1465C108.436 28.1465 107.501 27.8893 106.883 27.375C106.264 26.8542 105.955 26.0664 105.955 25.0117C105.955 24.0091 106.238 23.2572 106.805 22.7559C107.371 22.2546 108.227 22.0039 109.373 22.0039H112.254L112.391 23.6055H109.383C108.862 23.6055 108.471 23.7227 108.211 23.957C107.957 24.1849 107.83 24.5365 107.83 25.0117C107.83 25.526 107.999 25.9069 108.338 26.1543C108.683 26.4017 109.204 26.5254 109.9 26.5254C110.662 26.5254 111.229 26.444 111.6 26.2812C111.977 26.1185 112.166 25.8646 112.166 25.5195L112.371 26.9453C112.195 27.2188 111.977 27.4434 111.717 27.6191C111.463 27.7949 111.167 27.9251 110.828 28.0098C110.49 28.1009 110.109 28.1465 109.686 28.1465ZM129.197 21.8574C129.197 21.1413 129.012 20.5879 128.641 20.1973C128.27 19.8066 127.749 19.6113 127.078 19.6113C126.46 19.6113 125.981 19.8001 125.643 20.1777C125.304 20.5553 125.135 21.0892 125.135 21.7793L124.734 19.8262C125.053 19.1556 125.473 18.638 125.994 18.2734C126.521 17.9023 127.101 17.7168 127.732 17.7168C128.462 17.7168 129.083 17.8796 129.598 18.2051C130.118 18.5241 130.512 18.9928 130.779 19.6113C131.053 20.2298 131.189 20.9753 131.189 21.8477V28H129.197V21.8574ZM117.088 17.8633H119.08V28H117.088V17.8633ZM123.143 21.8574C123.143 21.1413 122.967 20.5879 122.615 20.1973C122.264 19.8066 121.766 19.6113 121.121 19.6113C120.47 19.6113 119.965 19.7839 119.607 20.1289C119.256 20.474 119.08 20.959 119.08 21.584L118.875 19.6309C119.188 19.0189 119.594 18.5469 120.096 18.2148C120.604 17.8828 121.163 17.7168 121.775 17.7168C122.485 17.7168 123.09 17.8796 123.592 18.2051C124.093 18.5241 124.474 18.9928 124.734 19.6113C125.001 20.2298 125.135 20.9753 125.135 21.8477V28H123.143V21.8574Z" fill="#A0A0A0"/>
<rect x="0.5" y="0.5" width="135" height="39" rx="5.5" stroke="#A0A0A0"/>
</svg>
