<svg width="136" height="40" viewBox="0 0 136 40" fill="none" xmlns="http://www.w3.org/2000/svg">
<path d="M34.3005 6.60092C33.8551 6.62029 33.4462 6.74842 33.0871 6.88998C32.7553 7.02065 31.5638 7.52144 29.6665 8.31722C27.7692 9.11301 25.2552 10.1681 22.5754 11.2952C17.216 13.5493 11.1933 16.0849 8.10726 17.3835C8.00128 17.4277 7.57089 17.5595 7.09554 17.9225C6.61909 18.2864 6.08984 19.0762 6.08984 19.9399C6.08984 20.6367 6.43767 21.3463 6.85767 21.7526C7.27767 22.1589 7.70333 22.3488 8.05908 22.4903V22.4873C9.26162 22.9664 12.8528 24.4034 13.7078 24.7456C14.0111 25.6545 15.3131 29.5454 15.6229 30.5238H15.6199C15.8388 31.2164 16.0522 31.6677 16.3486 32.0444C16.4967 32.2328 16.6736 32.4035 16.8905 32.5383C16.9738 32.59 17.066 32.6301 17.1585 32.6677C17.1714 32.6732 17.1847 32.6746 17.1977 32.6798L17.1615 32.6707C17.1884 32.6815 17.2125 32.6975 17.2398 32.7069C17.2844 32.7222 17.3153 32.7217 17.3753 32.734C17.5865 32.7989 17.7974 32.8424 17.9926 32.8424C18.8307 32.8424 19.3446 32.3877 19.3446 32.3877L19.3777 32.3636L22.997 29.3014L27.4293 33.4024C27.5102 33.5167 28.1445 34.375 29.6123 34.375C30.4882 34.375 31.1807 33.9415 31.6237 33.4867C32.0667 33.032 32.3427 32.5667 32.4668 31.936L32.4698 31.933C32.5688 31.424 36.8118 10.1178 36.8118 10.1178L36.8027 10.154C36.9348 9.56453 36.9738 8.99449 36.8178 8.41358C36.6618 7.83267 36.2408 7.26576 35.7338 6.96827C35.2268 6.67077 34.746 6.58154 34.3005 6.60092ZM33.6923 9.97632C33.5246 10.8181 29.7238 29.9132 29.4889 31.111L23.0873 25.1882L18.7604 28.8467L19.9588 24.1615C19.9588 24.1615 28.2261 15.7931 28.724 15.3059C29.1249 14.9159 29.2088 14.7791 29.2088 14.6435C29.2088 14.4631 29.116 14.3333 28.9017 14.3333C28.709 14.3333 28.4473 14.518 28.3085 14.6043C26.5454 15.7035 19.0358 19.9831 15.3429 22.0838C15.1206 21.9947 11.784 20.6549 9.98617 19.9369C13.184 18.5911 18.6656 16.2848 23.7708 14.1376C26.4501 13.0108 28.9634 11.9547 30.8589 11.1597C32.4589 10.4886 33.2935 10.1411 33.6923 9.97632ZM29.4437 31.3308H29.4467L29.4437 31.3398C29.4456 31.3299 29.4422 31.3386 29.4437 31.3308Z" fill="#A0A0A0"/>
<path d="M49.873 14.9629H51.8652V28H49.873V14.9629ZM45.8594 13.8008H55.8789V15.6953H45.8594V13.8008ZM60.3223 28.1465C59.3848 28.1465 58.584 27.9707 57.9199 27.6191C57.2559 27.2676 56.748 26.7533 56.3965 26.0762C56.0514 25.3926 55.8789 24.569 55.8789 23.6055V22.4629C55.8789 21.4603 56.0449 20.6042 56.377 19.8945C56.7155 19.1849 57.2038 18.6445 57.8418 18.2734C58.4798 17.9023 59.248 17.7168 60.1465 17.7168C60.9928 17.7168 61.7155 17.9284 62.3145 18.3516C62.9134 18.7747 63.3691 19.3867 63.6816 20.1875C64.0007 20.9883 64.1602 21.9486 64.1602 23.0684V23.7324H57.3242V22.1309H62.2656C62.207 21.304 61.9922 20.6628 61.6211 20.207C61.2565 19.7448 60.765 19.5137 60.1465 19.5137C59.3913 19.5137 58.8053 19.7611 58.3887 20.2559C57.9785 20.7507 57.7734 21.4505 57.7734 22.3555V23.6445C57.7734 24.4844 57.9948 25.1289 58.4375 25.5781C58.8802 26.0273 59.5085 26.252 60.3223 26.252C60.7259 26.252 61.1263 26.1706 61.5234 26.0078C61.9206 25.8451 62.2754 25.6172 62.5879 25.3242L63.8965 26.6328C63.3952 27.1146 62.832 27.4889 62.207 27.7559C61.582 28.0163 60.9538 28.1465 60.3223 28.1465ZM68.8867 25.3828C68.8867 25.6302 68.9388 25.8223 69.043 25.959C69.1536 26.0892 69.3066 26.1543 69.502 26.1543H70.4395V28.0488H69.2676C68.5124 28.0488 67.9264 27.8145 67.5098 27.3457C67.0996 26.877 66.8945 26.2161 66.8945 25.3633V13.8008H68.8867V25.3828ZM76.8457 28.1465C75.9082 28.1465 75.1074 27.9707 74.4434 27.6191C73.7793 27.2676 73.2715 26.7533 72.9199 26.0762C72.5749 25.3926 72.4023 24.569 72.4023 23.6055V22.4629C72.4023 21.4603 72.5684 20.6042 72.9004 19.8945C73.2389 19.1849 73.7272 18.6445 74.3652 18.2734C75.0033 17.9023 75.7715 17.7168 76.6699 17.7168C77.5163 17.7168 78.2389 17.9284 78.8379 18.3516C79.4368 18.7747 79.8926 19.3867 80.2051 20.1875C80.5241 20.9883 80.6836 21.9486 80.6836 23.0684V23.7324H73.8477V22.1309H78.7891C78.7305 21.304 78.5156 20.6628 78.1445 20.207C77.7799 19.7448 77.2884 19.5137 76.6699 19.5137C75.9147 19.5137 75.3288 19.7611 74.9121 20.2559C74.502 20.7507 74.2969 21.4505 74.2969 22.3555V23.6445C74.2969 24.4844 74.5182 25.1289 74.9609 25.5781C75.4036 26.0273 76.0319 26.252 76.8457 26.252C77.2493 26.252 77.6497 26.1706 78.0469 26.0078C78.444 25.8451 78.7988 25.6172 79.1113 25.3242L80.4199 26.6328C79.9186 27.1146 79.3555 27.4889 78.7305 27.7559C78.1055 28.0163 77.4772 28.1465 76.8457 28.1465ZM86.8164 32.1211C86.0547 32.1211 85.3711 31.9779 84.7656 31.6914C84.1667 31.4115 83.7012 31.0143 83.3691 30.5L84.7168 29.2793C84.9772 29.6374 85.2865 29.9141 85.6445 30.1094C86.0091 30.3047 86.39 30.4023 86.7871 30.4023C87.5488 30.4023 88.138 30.1908 88.5547 29.7676C88.9714 29.3509 89.1797 28.7585 89.1797 27.9902V17.8633H91.1719V27.6973C91.1719 28.6283 90.9993 29.4258 90.6543 30.0898C90.3158 30.7539 89.821 31.2585 89.1699 31.6035C88.5189 31.9486 87.7344 32.1211 86.8164 32.1211ZM86.6309 28.1758C85.8887 28.1758 85.2539 28.0163 84.7266 27.6973C84.2057 27.3717 83.8086 26.8997 83.5352 26.2812C83.2617 25.6628 83.125 24.9206 83.125 24.0547V21.8184C83.125 20.946 83.2585 20.2005 83.5254 19.582C83.7923 18.9635 84.1797 18.4948 84.6875 18.1758C85.2018 17.8503 85.8171 17.6875 86.5332 17.6875C87.1322 17.6875 87.679 17.8438 88.1738 18.1562C88.6751 18.4688 89.0788 18.9082 89.3848 19.4746L89.1797 21.5449C89.1797 21.1152 89.1016 20.7474 88.9453 20.4414C88.7891 20.1354 88.5612 19.9043 88.2617 19.748C87.9688 19.5853 87.6107 19.5039 87.1875 19.5039C86.5299 19.5039 86.0189 19.709 85.6543 20.1191C85.2962 20.5293 85.1172 21.1055 85.1172 21.8477V24.0547C85.1172 24.7904 85.2962 25.36 85.6543 25.7637C86.0189 26.1608 86.5299 26.3594 87.1875 26.3594C87.6107 26.3594 87.9688 26.278 88.2617 26.1152C88.5612 25.946 88.7891 25.7051 88.9453 25.3926C89.1016 25.0801 89.1797 24.7057 89.1797 24.2695L89.3164 26.4082C89.1146 26.9095 88.7826 27.3294 88.3203 27.668C87.8646 28.0065 87.3014 28.1758 86.6309 28.1758ZM94.1992 17.8633H96.1914V28H94.1992V17.8633ZM99.7754 20.2656C99.5996 20.0508 99.3783 19.888 99.1113 19.7773C98.8444 19.6667 98.5352 19.6113 98.1836 19.6113C97.5521 19.6113 97.0605 19.7871 96.709 20.1387C96.3639 20.4837 96.1914 20.9655 96.1914 21.584L95.9863 19.6309C96.2988 19.0254 96.7025 18.5566 97.1973 18.2246C97.6921 17.8861 98.2389 17.7168 98.8379 17.7168C99.3001 17.7168 99.7168 17.7852 100.088 17.9219C100.465 18.0521 100.794 18.2474 101.074 18.5078L99.7754 20.2656ZM108.457 21.5742C108.457 20.9102 108.278 20.3958 107.92 20.0312C107.568 19.6602 107.067 19.4746 106.416 19.4746C106.012 19.4746 105.615 19.5365 105.225 19.6602C104.84 19.7839 104.499 19.9564 104.199 20.1777L102.744 19.1816C103.128 18.7194 103.633 18.3613 104.258 18.1074C104.889 17.847 105.589 17.7168 106.357 17.7168C107.197 17.7168 107.917 17.8665 108.516 18.166C109.115 18.459 109.57 18.8887 109.883 19.4551C110.195 20.015 110.352 20.6921 110.352 21.4863V28H108.457V21.5742ZM105.977 28.1465C104.727 28.1465 103.792 27.8893 103.174 27.375C102.555 26.8542 102.246 26.0664 102.246 25.0117C102.246 24.0091 102.529 23.2572 103.096 22.7559C103.662 22.2546 104.518 22.0039 105.664 22.0039H108.545L108.682 23.6055H105.674C105.153 23.6055 104.762 23.7227 104.502 23.957C104.248 24.1849 104.121 24.5365 104.121 25.0117C104.121 25.526 104.29 25.9069 104.629 26.1543C104.974 26.4017 105.495 26.5254 106.191 26.5254C106.953 26.5254 107.52 26.444 107.891 26.2812C108.268 26.1185 108.457 25.8646 108.457 25.5195L108.662 26.9453C108.486 27.2188 108.268 27.4434 108.008 27.6191C107.754 27.7949 107.458 27.9251 107.119 28.0098C106.781 28.1009 106.4 28.1465 105.977 28.1465ZM125.488 21.8574C125.488 21.1413 125.303 20.5879 124.932 20.1973C124.561 19.8066 124.04 19.6113 123.369 19.6113C122.751 19.6113 122.272 19.8001 121.934 20.1777C121.595 20.5553 121.426 21.0892 121.426 21.7793L121.025 19.8262C121.344 19.1556 121.764 18.638 122.285 18.2734C122.812 17.9023 123.392 17.7168 124.023 17.7168C124.753 17.7168 125.374 17.8796 125.889 18.2051C126.41 18.5241 126.803 18.9928 127.07 19.6113C127.344 20.2298 127.48 20.9753 127.48 21.8477V28H125.488V21.8574ZM113.379 17.8633H115.371V28H113.379V17.8633ZM119.434 21.8574C119.434 21.1413 119.258 20.5879 118.906 20.1973C118.555 19.8066 118.057 19.6113 117.412 19.6113C116.761 19.6113 116.257 19.7839 115.898 20.1289C115.547 20.474 115.371 20.959 115.371 21.584L115.166 19.6309C115.479 19.0189 115.885 18.5469 116.387 18.2148C116.895 17.8828 117.454 17.7168 118.066 17.7168C118.776 17.7168 119.382 17.8796 119.883 18.2051C120.384 18.5241 120.765 18.9928 121.025 19.6113C121.292 20.2298 121.426 20.9753 121.426 21.8477V28H119.434V21.8574Z" fill="#A0A0A0"/>
<rect x="0.5" y="0.5" width="135" height="39" rx="5.5" stroke="#A0A0A0"/>
</svg>
