<svg width="136" height="40" viewBox="0 0 136 40" fill="none" xmlns="http://www.w3.org/2000/svg">
<path d="M25.038 5H18.6C12.307 5 7 10.0327 7 15.9818V21.0582C7 25.9891 8.479 29.1891 11.524 30.8327V34.1782C11.524 35.3127 12.2055 36.3309 13.235 36.7673C13.5975 36.9273 13.96 37 14.337 37C15.0475 37 15.758 36.7236 16.2945 36.2L20.5865 32.04H25.038C31.0845 32.04 36 27.1091 36 21.0582V15.9818C36 9.91636 31.0845 5 25.038 5ZM28.489 24.9418C28.2715 25.2327 28.0105 25.5527 27.7495 25.8727C26.9955 26.7455 25.763 27.0655 24.69 26.6145C22.2395 25.6109 19.3105 23.5745 17.4545 21.8582C15.9465 20.4473 14.1485 17.16 13.0755 15.0364C12.51 13.9018 12.829 12.5345 13.844 11.7491L14.685 11.0945C15.294 10.6291 16.164 10.76 16.599 11.3855L18.252 13.7273C18.6435 14.2945 18.542 15.0655 18.0055 15.5018L17.556 15.88C17.1645 16.2145 16.9905 16.7382 17.1065 17.2327C17.324 18.0473 17.904 19.24 18.948 20.36C20.2095 21.7127 21.3115 22.1636 21.993 22.3091C22.4425 22.3964 22.892 22.2218 23.1965 21.8873L23.646 21.3782C24.0955 20.8109 24.9075 20.6945 25.4875 21.1164L28.199 23.08C28.808 23.5164 28.924 24.3455 28.489 24.9418ZM22.225 15.9091C22.225 15.5018 22.544 15.1818 22.95 15.1818C24.69 15.1818 25.85 16.3455 25.85 18.0909C25.85 18.4982 25.531 18.8182 25.125 18.8182C24.719 18.8182 24.4 18.4982 24.4 18.0909C24.4 17.16 23.8925 16.6364 22.95 16.6364C22.544 16.6364 22.225 16.3164 22.225 15.9091ZM28.025 18.8182C27.619 18.8182 27.3 18.4982 27.3 18.0909C27.3 15.8945 25.1395 13.7273 22.95 13.7273C22.544 13.7273 22.225 13.4073 22.225 13C22.225 12.5927 22.544 12.2727 22.95 12.2727C25.937 12.2727 28.75 15.0945 28.75 18.0909C28.75 18.4982 28.431 18.8182 28.025 18.8182ZM30.925 18.8182C30.519 18.8182 30.2 18.4982 30.2 18.0909C30.2 14.6436 27.2275 10.8182 22.95 10.8182C22.544 10.8182 22.225 10.4982 22.225 10.0909C22.225 9.68364 22.544 9.36364 22.95 9.36364C28.083 9.36364 31.65 13.96 31.65 18.0909C31.65 18.4982 31.331 18.8182 30.925 18.8182Z" fill="#A0A0A0"/>
<path d="M41.3457 13.8008H43.5137L46.9219 24.9336L50.3301 13.8008H52.498L47.8691 28H45.9746L41.3457 13.8008ZM54.3535 13.8008H56.3457V15.793H54.3535V13.8008ZM54.3535 17.8633H56.3457V28H54.3535V17.8633ZM63.9141 28.1465C63.2826 28.1465 62.7324 27.9967 62.2637 27.6973C61.7949 27.3913 61.4499 26.9616 61.2285 26.4082L61.3652 24.2891C61.3652 24.7253 61.4434 25.0964 61.5996 25.4023C61.7559 25.7083 61.9805 25.9427 62.2734 26.1055C62.5729 26.2682 62.9342 26.3496 63.3574 26.3496C64.015 26.3496 64.5228 26.151 64.8809 25.7539C65.2454 25.3503 65.4277 24.7839 65.4277 24.0547V21.8574C65.4277 21.1152 65.2454 20.5391 64.8809 20.1289C64.5228 19.7188 64.015 19.5137 63.3574 19.5137C62.9342 19.5137 62.5729 19.5918 62.2734 19.748C61.9805 19.9043 61.7559 20.1354 61.5996 20.4414C61.4434 20.7409 61.3652 21.1022 61.3652 21.5254L61.1602 19.5723C61.4661 18.9798 61.8665 18.5241 62.3613 18.2051C62.8561 17.8796 63.4062 17.7168 64.0117 17.7168C64.7279 17.7168 65.3398 17.8796 65.8477 18.2051C66.362 18.5241 66.7526 18.9928 67.0195 19.6113C67.2865 20.2298 67.4199 20.9753 67.4199 21.8477V24.0547C67.4199 24.9141 67.2832 25.6497 67.0098 26.2617C66.7363 26.8737 66.3359 27.3424 65.8086 27.668C65.2812 27.987 64.6497 28.1465 63.9141 28.1465ZM59.373 13.8008H61.3652V28H59.373V13.8008ZM74.4023 28.1465C73.4648 28.1465 72.6641 27.9707 72 27.6191C71.3359 27.2676 70.8281 26.7533 70.4766 26.0762C70.1315 25.3926 69.959 24.569 69.959 23.6055V22.4629C69.959 21.4603 70.125 20.6042 70.457 19.8945C70.7956 19.1849 71.2839 18.6445 71.9219 18.2734C72.5599 17.9023 73.3281 17.7168 74.2266 17.7168C75.0729 17.7168 75.7956 17.9284 76.3945 18.3516C76.9935 18.7747 77.4492 19.3867 77.7617 20.1875C78.0807 20.9883 78.2402 21.9486 78.2402 23.0684V23.7324H71.4043V22.1309H76.3457C76.2871 21.304 76.0723 20.6628 75.7012 20.207C75.3366 19.7448 74.8451 19.5137 74.2266 19.5137C73.4714 19.5137 72.8854 19.7611 72.4688 20.2559C72.0586 20.7507 71.8535 21.4505 71.8535 22.3555V23.6445C71.8535 24.4844 72.0749 25.1289 72.5176 25.5781C72.9603 26.0273 73.5885 26.252 74.4023 26.252C74.806 26.252 75.2064 26.1706 75.6035 26.0078C76.0007 25.8451 76.3555 25.6172 76.668 25.3242L77.9766 26.6328C77.4753 27.1146 76.9121 27.4889 76.2871 27.7559C75.6621 28.0163 75.0339 28.1465 74.4023 28.1465ZM80.9746 17.8633H82.9668V28H80.9746V17.8633ZM86.5508 20.2656C86.375 20.0508 86.1536 19.888 85.8867 19.7773C85.6198 19.6667 85.3105 19.6113 84.959 19.6113C84.3275 19.6113 83.8359 19.7871 83.4844 20.1387C83.1393 20.4837 82.9668 20.9655 82.9668 21.584L82.7617 19.6309C83.0742 19.0254 83.4779 18.5566 83.9727 18.2246C84.4674 17.8861 85.0143 17.7168 85.6133 17.7168C86.0755 17.7168 86.4922 17.7852 86.8633 17.9219C87.2409 18.0521 87.5697 18.2474 87.8496 18.5078L86.5508 20.2656Z" fill="#A0A0A0"/>
<rect x="0.5" y="0.5" width="135" height="39" rx="5.5" stroke="#A0A0A0"/>
</svg>
