<svg width="136" height="40" viewBox="0 0 136 40" fill="none" xmlns="http://www.w3.org/2000/svg">
<path d="M31.7629 9.2456C29.028 6.50945 25.3913 5.00145 21.5167 5C13.5326 5 7.0348 11.4945 7.0319 19.4782C7.03045 22.0303 7.69748 24.5213 8.96485 26.7166L7 34L14.5882 32.2064C16.7039 33.3606 19.0849 33.9681 21.5094 33.9696H21.5152C29.4979 33.9696 35.9956 27.4736 36 19.4913C36.0029 15.6213 34.4977 11.9832 31.7629 9.2456ZM28.6032 24.6533C28.3016 25.4987 26.8239 26.3136 26.1598 26.373C25.4957 26.4339 24.8736 26.6731 21.8168 25.4682C18.138 24.0182 15.815 20.2468 15.6352 20.0061C15.4539 19.7639 14.1576 18.0442 14.1576 16.2636C14.1576 14.483 15.0929 13.6072 15.4249 13.2461C15.757 12.8836 16.1485 12.7938 16.3907 12.7938C16.6314 12.7938 16.8735 12.7938 17.0838 12.8025C17.3419 12.8126 17.6276 12.8256 17.8987 13.4274C18.2207 14.1437 18.9239 15.933 19.0138 16.1143C19.1038 16.2955 19.1647 16.5072 19.0443 16.7479C18.9239 16.9886 18.863 17.1394 18.6832 17.3511C18.502 17.5628 18.3033 17.8224 18.1409 17.9848C17.9596 18.1646 17.7711 18.3618 17.9814 18.7228C18.1931 19.0853 18.9181 20.27 19.9941 21.2284C21.3775 22.4609 22.5419 22.8423 22.9044 23.025C23.2669 23.2062 23.4772 23.1758 23.6889 22.9336C23.9006 22.6929 24.5937 21.878 24.8344 21.5155C25.0751 21.153 25.3173 21.2139 25.6494 21.3343C25.9814 21.4546 27.7607 22.3304 28.1218 22.5117C28.4843 22.6929 28.725 22.7828 28.8149 22.9336C28.9048 23.083 28.9048 23.808 28.6032 24.6533Z" fill="#A0A0A0"/>
<path d="M51.2598 13.8008H52.627L55.5371 24.9336L58.0469 13.8008H60.1172L56.6504 28H54.6191L52.002 18.0781L49.2676 28H47.2363L43.7695 13.8008H45.8398L48.3496 24.9336L51.2598 13.8008ZM61.9727 13.8008H63.9648V28H61.9727V13.8008ZM68.125 21.8574C68.125 21.1413 67.9395 20.5879 67.5684 20.1973C67.1973 19.8066 66.6764 19.6113 66.0059 19.6113C65.3548 19.6113 64.8503 19.7806 64.4922 20.1191C64.1406 20.4577 63.9648 20.9362 63.9648 21.5547L63.7598 19.6016C64.0723 19.0026 64.4792 18.5404 64.9805 18.2148C65.4883 17.8828 66.0482 17.7168 66.6602 17.7168C67.7604 17.7168 68.61 18.0781 69.209 18.8008C69.8145 19.5169 70.1172 20.5326 70.1172 21.8477V28H68.125V21.8574ZM78.8672 21.5742C78.8672 20.9102 78.6882 20.3958 78.3301 20.0312C77.9785 19.6602 77.4772 19.4746 76.8262 19.4746C76.4225 19.4746 76.0254 19.5365 75.6348 19.6602C75.2507 19.7839 74.9089 19.9564 74.6094 20.1777L73.1543 19.1816C73.5384 18.7194 74.043 18.3613 74.668 18.1074C75.2995 17.847 75.9993 17.7168 76.7676 17.7168C77.6074 17.7168 78.3268 17.8665 78.9258 18.166C79.5247 18.459 79.9805 18.8887 80.293 19.4551C80.6055 20.015 80.7617 20.6921 80.7617 21.4863V28H78.8672V21.5742ZM76.3867 28.1465C75.1367 28.1465 74.2025 27.8893 73.584 27.375C72.9655 26.8542 72.6562 26.0664 72.6562 25.0117C72.6562 24.0091 72.9395 23.2572 73.5059 22.7559C74.0723 22.2546 74.9284 22.0039 76.0742 22.0039H78.9551L79.0918 23.6055H76.084C75.5632 23.6055 75.1725 23.7227 74.9121 23.957C74.6582 24.1849 74.5312 24.5365 74.5312 25.0117C74.5312 25.526 74.7005 25.9069 75.0391 26.1543C75.3841 26.4017 75.9049 26.5254 76.6016 26.5254C77.3633 26.5254 77.9297 26.444 78.3008 26.2812C78.6784 26.1185 78.8672 25.8646 78.8672 25.5195L79.0723 26.9453C78.8965 27.2188 78.6784 27.4434 78.418 27.6191C78.1641 27.7949 77.8678 27.9251 77.5293 28.0098C77.1908 28.1009 76.8099 28.1465 76.3867 28.1465ZM86.4258 28.0488C85.6055 28.0488 85.0033 27.8242 84.6191 27.375C84.2415 26.9193 84.0527 26.2487 84.0527 25.3633V14.9141H86.0449V25.3828C86.0449 25.6302 86.0938 25.8223 86.1914 25.959C86.2891 26.0892 86.4323 26.1543 86.6211 26.1543H87.5781V28.0488H86.4258ZM83.0078 17.8633H87.5781V19.6602H83.0078V17.8633ZM93.8965 28.1465C93.2975 28.1465 92.7344 28.0879 92.207 27.9707C91.6862 27.8535 91.1979 27.6777 90.7422 27.4434C90.2865 27.209 89.8665 26.916 89.4824 26.5645L90.6641 25.1094C91.2109 25.526 91.7546 25.8385 92.2949 26.0469C92.8353 26.2552 93.3691 26.3594 93.8965 26.3594C94.6842 26.3594 95.2734 26.2389 95.6641 25.998C96.0612 25.7507 96.2598 25.3828 96.2598 24.8945C96.2598 24.569 96.1523 24.3249 95.9375 24.1621C95.7227 23.9993 95.4557 23.8919 95.1367 23.8398C94.8177 23.7812 94.3685 23.7292 93.7891 23.6836C93.737 23.6836 93.6816 23.6836 93.623 23.6836C93.5645 23.6771 93.5091 23.6706 93.457 23.6641C93.431 23.6641 93.4049 23.6641 93.3789 23.6641C93.3529 23.6576 93.3268 23.6543 93.3008 23.6543C92.6432 23.6022 92.0866 23.5078 91.6309 23.3711C91.1751 23.2279 90.7943 22.9642 90.4883 22.5801C90.1888 22.196 90.0391 21.6458 90.0391 20.9297C90.0391 20.2135 90.1855 19.6178 90.4785 19.1426C90.7715 18.6673 91.2077 18.3125 91.7871 18.0781C92.3665 17.8372 93.0924 17.7168 93.9648 17.7168C94.4922 17.7168 94.9935 17.7656 95.4688 17.8633C95.9505 17.9609 96.4095 18.1074 96.8457 18.3027C97.2819 18.4915 97.7018 18.7324 98.1055 19.0254L96.9043 20.4805C96.3965 20.1549 95.8952 19.9108 95.4004 19.748C94.9121 19.5853 94.4336 19.5039 93.9648 19.5039C93.2878 19.5039 92.7799 19.6211 92.4414 19.8555C92.1029 20.0833 91.9336 20.4284 91.9336 20.8906C91.9336 21.1641 92.028 21.3691 92.2168 21.5059C92.4121 21.6426 92.6562 21.7337 92.9492 21.7793C93.2422 21.8249 93.6589 21.8639 94.1992 21.8965C94.2383 21.903 94.2773 21.9062 94.3164 21.9062C94.362 21.9062 94.4076 21.9095 94.4531 21.916C94.4727 21.916 94.4922 21.916 94.5117 21.916C94.5312 21.916 94.5508 21.9193 94.5703 21.9258C95.2799 21.9714 95.8822 22.0658 96.377 22.209C96.8783 22.3522 97.2982 22.6354 97.6367 23.0586C97.9753 23.4818 98.1445 24.0938 98.1445 24.8945C98.1445 25.6237 97.9883 26.2292 97.6758 26.7109C97.3633 27.1862 96.8913 27.5443 96.2598 27.7852C95.6348 28.026 94.847 28.1465 93.8965 28.1465ZM106.406 21.5742C106.406 20.9102 106.227 20.3958 105.869 20.0312C105.518 19.6602 105.016 19.4746 104.365 19.4746C103.962 19.4746 103.564 19.5365 103.174 19.6602C102.79 19.7839 102.448 19.9564 102.148 20.1777L100.693 19.1816C101.077 18.7194 101.582 18.3613 102.207 18.1074C102.839 17.847 103.538 17.7168 104.307 17.7168C105.146 17.7168 105.866 17.8665 106.465 18.166C107.064 18.459 107.52 18.8887 107.832 19.4551C108.145 20.015 108.301 20.6921 108.301 21.4863V28H106.406V21.5742ZM103.926 28.1465C102.676 28.1465 101.742 27.8893 101.123 27.375C100.505 26.8542 100.195 26.0664 100.195 25.0117C100.195 24.0091 100.479 23.2572 101.045 22.7559C101.611 22.2546 102.467 22.0039 103.613 22.0039H106.494L106.631 23.6055H103.623C103.102 23.6055 102.712 23.7227 102.451 23.957C102.197 24.1849 102.07 24.5365 102.07 25.0117C102.07 25.526 102.24 25.9069 102.578 26.1543C102.923 26.4017 103.444 26.5254 104.141 26.5254C104.902 26.5254 105.469 26.444 105.84 26.2812C106.217 26.1185 106.406 25.8646 106.406 25.5195L106.611 26.9453C106.436 27.2188 106.217 27.4434 105.957 27.6191C105.703 27.7949 105.407 27.9251 105.068 28.0098C104.73 28.1009 104.349 28.1465 103.926 28.1465ZM111.328 17.8633H113.32V32.1211H111.328V17.8633ZM115.869 28.1465C115.238 28.1465 114.688 27.9967 114.219 27.6973C113.75 27.3913 113.405 26.9616 113.184 26.4082L113.32 24.2891C113.32 24.7253 113.398 25.0964 113.555 25.4023C113.711 25.7083 113.936 25.9427 114.229 26.1055C114.528 26.2682 114.889 26.3496 115.312 26.3496C115.97 26.3496 116.478 26.151 116.836 25.7539C117.201 25.3503 117.383 24.7839 117.383 24.0547V21.8574C117.383 21.1152 117.201 20.5391 116.836 20.1289C116.478 19.7188 115.97 19.5137 115.312 19.5137C114.889 19.5137 114.528 19.5918 114.229 19.748C113.936 19.9043 113.711 20.1354 113.555 20.4414C113.398 20.7409 113.32 21.1022 113.32 21.5254L113.115 19.5723C113.421 18.9798 113.822 18.5241 114.316 18.2051C114.811 17.8796 115.361 17.7168 115.967 17.7168C116.683 17.7168 117.295 17.8796 117.803 18.2051C118.317 18.5241 118.708 18.9928 118.975 19.6113C119.242 20.2298 119.375 20.9753 119.375 21.8477V24.0547C119.375 24.9141 119.238 25.6497 118.965 26.2617C118.691 26.8737 118.291 27.3424 117.764 27.668C117.236 27.987 116.605 28.1465 115.869 28.1465ZM122.207 17.8633H124.199V32.1211H122.207V17.8633ZM126.748 28.1465C126.117 28.1465 125.566 27.9967 125.098 27.6973C124.629 27.3913 124.284 26.9616 124.062 26.4082L124.199 24.2891C124.199 24.7253 124.277 25.0964 124.434 25.4023C124.59 25.7083 124.814 25.9427 125.107 26.1055C125.407 26.2682 125.768 26.3496 126.191 26.3496C126.849 26.3496 127.357 26.151 127.715 25.7539C128.079 25.3503 128.262 24.7839 128.262 24.0547V21.8574C128.262 21.1152 128.079 20.5391 127.715 20.1289C127.357 19.7188 126.849 19.5137 126.191 19.5137C125.768 19.5137 125.407 19.5918 125.107 19.748C124.814 19.9043 124.59 20.1354 124.434 20.4414C124.277 20.7409 124.199 21.1022 124.199 21.5254L123.994 19.5723C124.3 18.9798 124.701 18.5241 125.195 18.2051C125.69 17.8796 126.24 17.7168 126.846 17.7168C127.562 17.7168 128.174 17.8796 128.682 18.2051C129.196 18.5241 129.587 18.9928 129.854 19.6113C130.12 20.2298 130.254 20.9753 130.254 21.8477V24.0547C130.254 24.9141 130.117 25.6497 129.844 26.2617C129.57 26.8737 129.17 27.3424 128.643 27.668C128.115 27.987 127.484 28.1465 126.748 28.1465Z" fill="#A0A0A0"/>
<rect x="0.5" y="0.5" width="135" height="39" rx="5.5" stroke="#A0A0A0"/>
</svg>
