<svg width="94" height="93" viewBox="0 0 94 93" fill="none" xmlns="http://www.w3.org/2000/svg">
<g filter="url(#filter0_d_401_2)">
<rect x="4" y="0.142883" width="85.7143" height="84.8571" rx="8" fill="white"/>
</g>
<path d="M69.998 63.8486L68.4509 28.5733C68.4235 25.9691 66.3056 23.8567 63.7062 23.8567H55.8419C55.2038 19.7003 51.6075 16.4286 47.2803 16.4286C42.9518 16.4286 39.3546 19.7003 38.7162 23.8567H30.8628C28.2642 23.8567 26.1469 25.9692 26.1196 28.5734L24.5734 63.8474C24.5721 63.8773 24.5714 63.9077 24.5714 63.9377C24.5714 66.5714 26.6998 68.7143 29.3161 68.7143H65.2555C67.8716 68.7143 70 66.572 70 63.9383C70 63.9083 69.9993 63.8786 69.998 63.8486ZM47.2803 20.4969C49.3766 20.4969 51.1513 21.917 51.7208 23.8566H42.8375C43.4073 21.917 45.1828 20.4969 47.2803 20.4969ZM65.2554 64.6504H29.3161C28.9254 64.6504 28.6173 64.3534 28.6016 63.9711L30.1469 28.7177C30.1482 28.6878 30.1488 28.6527 30.1488 28.6228C30.1488 28.2319 30.4624 27.9206 30.8628 27.9206H38.5988V35.3546C38.5988 36.4781 39.4987 37.3888 40.6115 37.3888C41.7242 37.3888 42.6241 36.4781 42.6241 35.3546V27.9206H51.8944V35.3546C51.8944 36.4781 52.7943 37.3888 53.907 37.3888C55.0198 37.3888 55.9197 36.4781 55.9197 35.3546V27.9206H63.7062C64.1073 27.9206 64.4215 28.2315 64.4215 28.6223C64.4215 28.6523 64.4222 28.6846 64.4235 28.7146L65.9697 63.9701C65.9541 64.3523 65.646 64.6504 65.2554 64.6504Z" fill="#464646"/>
<defs>
<filter id="filter0_d_401_2" x="0" y="0.142883" width="93.7142" height="92.8571" filterUnits="userSpaceOnUse" color-interpolation-filters="sRGB">
<feFlood flood-opacity="0" result="BackgroundImageFix"/>
<feColorMatrix in="SourceAlpha" type="matrix" values="0 0 0 0 0 0 0 0 0 0 0 0 0 0 0 0 0 0 127 0" result="hardAlpha"/>
<feOffset dy="4"/>
<feGaussianBlur stdDeviation="2"/>
<feComposite in2="hardAlpha" operator="out"/>
<feColorMatrix type="matrix" values="0 0 0 0 0 0 0 0 0 0 0 0 0 0 0 0 0 0 0.25 0"/>
<feBlend mode="normal" in2="BackgroundImageFix" result="effect1_dropShadow_401_2"/>
<feBlend mode="normal" in="SourceGraphic" in2="effect1_dropShadow_401_2" result="shape"/>
</filter>
</defs>
</svg>
