<svg width="6" height="12" viewBox="0 0 6 12" fill="none" xmlns="http://www.w3.org/2000/svg">
<path d="M0 11.2513C0.00017739 11.0522 0.0803668 10.8614 0.222938 10.7207L4.11017 6.88034C4.22783 6.76413 4.32116 6.62616 4.38484 6.47431C4.44852 6.32246 4.48129 6.15971 4.48129 5.99534C4.48129 5.83097 4.44852 5.66822 4.38484 5.51637C4.32116 5.36451 4.22783 5.22654 4.11017 5.11033L0.228005 1.27248C0.0895617 1.13087 0.0129564 0.941199 0.014688 0.744328C0.0164196 0.547457 0.0963499 0.359134 0.237263 0.21992C0.378176 0.0807055 0.568798 0.00173914 0.768072 2.83842e-05C0.967346 -0.00168237 1.15933 0.0739993 1.30267 0.210773L5.18483 4.04563C5.70683 4.56234 6 5.26255 6 5.99259C6 6.72262 5.70683 7.42283 5.18483 7.93955L1.2976 11.7799C1.19146 11.8848 1.05624 11.9563 0.909004 11.9854C0.761765 12.0145 0.609107 11.9999 0.470292 11.9433C0.331478 11.8868 0.212729 11.7909 0.12903 11.6677C0.0453304 11.5445 0.00043184 11.3996 0 11.2513Z" fill="#797979"/>
</svg>
