<svg width="23" height="23" viewBox="0 0 23 23" fill="none" xmlns="http://www.w3.org/2000/svg">
<path d="M5.75 11.5H17.25V13.4167H5.75V11.5ZM5.75 17.25H13.8V15.3333H5.75V17.25ZM23 7.26992V23H0V2.875C0 2.1125 0.363481 1.38124 1.01048 0.842068C1.65748 0.302901 2.535 0 3.45 0L14.2761 0L23 7.26992ZM14.95 6.70833H19.0739L14.95 3.27175V6.70833ZM20.7 21.0833V8.625H12.65V1.91667H3.45C3.145 1.91667 2.85249 2.01763 2.63683 2.19736C2.42116 2.37708 2.3 2.62083 2.3 2.875V21.0833H20.7Z" fill="#C726FF"/>
</svg>
