<svg width="23" height="23" viewBox="0 0 23 23" fill="none" xmlns="http://www.w3.org/2000/svg">
<path d="M23 2.84211H4.06525L4.025 2.50958C3.94263 1.8184 3.60658 1.18111 3.08055 0.718558C2.55453 0.256001 1.8751 0.000323804 1.17108 0L0 0V1.89474H1.17108C1.40581 1.89477 1.63236 1.97996 1.80777 2.13415C1.98318 2.28834 2.09525 2.50081 2.12271 2.73126L3.64167 15.4904C3.72404 16.1816 4.06009 16.8189 4.58611 17.2814C5.11214 17.744 5.79156 17.9997 6.49558 18H19.1667V16.1053H6.49558C6.26071 16.1052 6.03403 16.0199 5.8586 15.8655C5.68317 15.7111 5.5712 15.4984 5.54396 15.2678L5.41842 14.2105H20.9262L23 2.84211ZM19.3238 12.3158H5.19321L4.29142 4.73684H20.7067L19.3238 12.3158Z" fill="#C726FF"/>
<path d="M7 23C8.10457 23 9 22.1046 9 21C9 19.8954 8.10457 19 7 19C5.89543 19 5 19.8954 5 21C5 22.1046 5.89543 23 7 23Z" fill="#C726FF"/>
<path d="M16 23C17.1046 23 18 22.1046 18 21C18 19.8954 17.1046 19 16 19C14.8954 19 14 19.8954 14 21C14 22.1046 14.8954 23 16 23Z" fill="#C726FF"/>
</svg>
