<svg width="23" height="23" viewBox="0 0 23 23" fill="none" xmlns="http://www.w3.org/2000/svg">
<path d="M18.2083 4.18182H16.2917V3.13636C16.2917 2.30455 15.9888 1.5068 15.4496 0.91862C14.9104 0.330437 14.1792 0 13.4167 0H2.875C2.1125 0 1.38124 0.330437 0.842068 0.91862C0.302901 1.5068 0 2.30455 0 3.13636L0 18.8182H1.95596C1.9313 18.9912 1.91817 19.1659 1.91667 19.3409C1.91667 20.3114 2.27005 21.2421 2.89908 21.9283C3.52811 22.6145 4.38125 23 5.27083 23C6.16041 23 7.01356 22.6145 7.64259 21.9283C8.27162 21.2421 8.625 20.3114 8.625 19.3409C8.6235 19.1659 8.61037 18.9912 8.58571 18.8182H14.4143C14.3896 18.9912 14.3765 19.1659 14.375 19.3409C14.375 20.3114 14.7284 21.2421 15.3574 21.9283C15.9864 22.6145 16.8396 23 17.7292 23C18.6187 23 19.4719 22.6145 20.1009 21.9283C20.7299 21.2421 21.0833 20.3114 21.0833 19.3409C21.0818 19.1659 21.0687 18.9912 21.044 18.8182H23V9.40909C22.9985 8.02324 22.4932 6.69463 21.5949 5.71468C20.6966 4.73474 19.4787 4.18348 18.2083 4.18182V4.18182ZM18.2083 6.27273C18.9708 6.27273 19.7021 6.60316 20.2413 7.19135C20.7804 7.77953 21.0833 8.57728 21.0833 9.40909V10.4545H16.2917V6.27273H18.2083ZM6.70833 19.3409C6.70833 19.7568 6.55688 20.1557 6.2873 20.4498C6.01772 20.7439 5.65208 20.9091 5.27083 20.9091C4.88958 20.9091 4.52395 20.7439 4.25437 20.4498C3.98478 20.1557 3.83333 19.7568 3.83333 19.3409C3.83392 19.1622 3.86412 18.9851 3.92246 18.8182H6.61921C6.67755 18.9851 6.70774 19.1622 6.70833 19.3409V19.3409ZM14.375 16.7273H1.91667V3.13636C1.91667 2.85909 2.01763 2.59318 2.19736 2.39712C2.37708 2.20105 2.62083 2.09091 2.875 2.09091H13.4167C13.6708 2.09091 13.9146 2.20105 14.0943 2.39712C14.274 2.59318 14.375 2.85909 14.375 3.13636V16.7273ZM19.1667 19.3409C19.1667 19.7568 19.0152 20.1557 18.7456 20.4498C18.476 20.7439 18.1104 20.9091 17.7292 20.9091C17.3479 20.9091 16.9823 20.7439 16.7127 20.4498C16.4431 20.1557 16.2917 19.7568 16.2917 19.3409C16.2921 19.1622 16.3223 18.9851 16.3808 18.8182H19.0775C19.136 18.9851 19.1662 19.1622 19.1667 19.3409V19.3409ZM16.2917 16.7273V12.5455H21.0833V16.7273H16.2917Z" fill="#C726FF"/>
</svg>
