<svg width="23" height="23" viewBox="0 0 23 23" fill="none" xmlns="http://www.w3.org/2000/svg">
<path d="M12.7823 0.49811C12.4303 0.177438 11.9735 0 11.5 0C11.0265 0 10.5697 0.177438 10.2177 0.49811L0 9.80696V19.8958C0 20.7191 0.323094 21.5086 0.898206 22.0908C1.47332 22.6729 2.25334 23 3.06667 23H19.9333C20.7467 23 21.5267 22.6729 22.1018 22.0908C22.6769 21.5086 23 20.7191 23 19.8958V9.80696L12.7823 0.49811ZM14.375 21.0569H8.625V16.1813C8.625 15.4095 8.9279 14.6693 9.46707 14.1235C10.0062 13.5777 10.7375 13.2711 11.5 13.2711C12.2625 13.2711 12.9938 13.5777 13.5329 14.1235C14.0721 14.6693 14.375 15.4095 14.375 16.1813V21.0569ZM21.0833 19.8928C21.0833 20.2016 20.9622 20.4977 20.7465 20.716C20.5308 20.9343 20.2383 21.0569 19.9333 21.0569H16.2917V16.1813C16.2917 14.8949 15.7868 13.6612 14.8882 12.7516C13.9896 11.842 12.7708 11.331 11.5 11.331C10.2292 11.331 9.01039 11.842 8.11178 12.7516C7.21317 13.6612 6.70833 14.8949 6.70833 16.1813V21.0569H3.06667C2.76167 21.0569 2.46916 20.9343 2.25349 20.716C2.03783 20.4977 1.91667 20.2016 1.91667 19.8928V10.6703L11.5 1.93964L21.0833 10.6703V19.8928Z" fill="#C726FF"/>
</svg>
