<svg width="23" height="23" viewBox="0 0 23 23" fill="none" xmlns="http://www.w3.org/2000/svg">
<path d="M23 23H11.5059C9.26021 22.9989 7.06387 22.3417 5.18742 21.1092C3.31096 19.8767 1.83634 18.1228 0.945181 16.0635C0.054024 14.0043 -0.214746 11.7296 0.171976 9.51963C0.558697 7.30967 1.58402 5.26098 3.12165 3.6259C4.65929 1.99081 6.64208 0.840738 8.8258 0.317341C11.0095 -0.206056 13.2988 -0.0799208 15.4117 0.680211C17.5245 1.44034 19.3687 2.80127 20.717 4.59537C22.0653 6.38947 22.8589 8.53838 23 10.7774V10.8378V23ZM11.5059 1.91667C8.96173 1.91667 6.52176 2.92634 4.72276 4.72356C2.92376 6.52078 1.91309 8.95834 1.91309 11.5C1.91309 14.0417 2.92376 16.4792 4.72276 18.2764C6.52176 20.0737 8.96173 21.0833 11.5059 21.0833H21.0814V10.8685C20.9169 8.44226 19.837 6.16882 18.0596 4.50726C16.2823 2.84571 13.9401 1.91985 11.5059 1.91667V1.91667Z" fill="#C726FF"/>
<path d="M12 7H7V9H12V7Z" fill="#C726FF"/>
<path d="M16 11H7V12H16V11Z" fill="#C726FF"/>
<path d="M16 14H7V16H16V14Z" fill="#C726FF"/>
</svg>
