<svg width="22" height="21" viewBox="0 0 22 21" fill="none" xmlns="http://www.w3.org/2000/svg">
<path d="M16.0396 0C15.0078 0.0164268 13.9985 0.311238 13.1137 0.85466C12.2288 1.39808 11.4997 2.17087 11 3.09499C10.5003 2.17087 9.77118 1.39808 8.88632 0.85466C8.00146 0.311238 6.99216 0.0164268 5.96037 0C4.31556 0.0731457 2.76589 0.809626 1.64991 2.04854C0.533927 3.28746 -0.0576437 4.9281 0.00443589 6.61203C0.00443589 12.9661 10.0434 20.305 10.4704 20.6164L11 21L11.5296 20.6164C11.9566 20.3069 21.9956 12.9661 21.9956 6.61203C22.0576 4.9281 21.4661 3.28746 20.3501 2.04854C19.2341 0.809626 17.6844 0.0731457 16.0396 0V0Z" fill="#F60909"/>
</svg>
