<svg width="25" height="25" viewBox="0 0 25 25" fill="none" xmlns="http://www.w3.org/2000/svg">
<g clip-path="url(#clip0_542_2)">
<path d="M14.7097 12.4998L24.5427 22.3317C25.1531 22.942 25.1531 23.9316 24.5427 24.542C23.9323 25.1523 22.9427 25.1523 22.3324 24.542L12.5005 14.7091L2.66858 24.542C2.0582 25.1523 1.0686 25.1523 0.45827 24.542C-0.152057 23.9316 -0.152106 22.942 0.45827 22.3317L10.2912 12.4998L0.45827 2.66787C-0.152106 2.05749 -0.152106 1.06789 0.45827 0.457561C1.06865 -0.152766 2.05825 -0.152814 2.66858 0.457561L12.5005 10.2905L22.3323 0.457561C22.9427 -0.152814 23.9323 -0.152814 24.5426 0.457561C25.153 1.06794 25.153 2.05754 24.5426 2.66787L14.7097 12.4998Z" fill="#A0A0A0"/>
</g>
<defs>
<clipPath id="clip0_542_2">
<rect width="25" height="25" fill="white" transform="matrix(1 0 0 -1 0 25)"/>
</clipPath>
</defs>
</svg>
