<svg width="19" height="37" viewBox="0 0 19 37" fill="none" xmlns="http://www.w3.org/2000/svg">
<path d="M16.5265 12.8121L4.47772 0.76333C3.9859 0.274422 3.32058 0 2.6271 0C1.93361 0 1.2683 0.274422 0.776471 0.76333C0.530433 1.00736 0.335149 1.29769 0.201881 1.61757C0.0686135 1.93745 0 2.28055 0 2.62708C0 2.97361 0.0686135 3.31671 0.201881 3.63659C0.335149 3.95648 0.530433 4.2468 0.776471 4.49083L12.8515 16.5133C13.0975 16.7574 13.2928 17.0477 13.4261 17.3676C13.5593 17.6874 13.6279 18.0306 13.6279 18.3771C13.6279 18.7236 13.5593 19.0667 13.4261 19.3866C13.2928 19.7065 13.0975 19.9968 12.8515 20.2408L0.776471 32.2633C0.282173 32.7542 0.00309728 33.4212 0.000635862 34.1178C-0.00182555 34.8144 0.272531 35.4834 0.763348 35.9777C1.25416 36.472 1.92123 36.7511 2.61782 36.7535C3.3144 36.756 3.98343 36.4816 4.47772 35.9908L16.5265 23.9421C18.0012 22.4655 18.8295 20.464 18.8295 18.3771C18.8295 16.2902 18.0012 14.2886 16.5265 12.8121V12.8121Z" fill="#A0A0A0"/>
</svg>
