<svg width="38" height="36" viewBox="0 0 38 36" fill="none" xmlns="http://www.w3.org/2000/svg">
<path d="M17.1733 2.09812C17.878 0.51714 20.122 0.517141 20.8267 2.09812L24.6081 10.5812C24.8987 11.2332 25.5149 11.6809 26.2249 11.7558L35.4612 12.7307C37.1826 12.9124 37.876 15.0466 36.5902 16.2053L29.6908 22.423C29.1605 22.9009 28.9251 23.6253 29.0733 24.3237L31.0003 33.4092C31.3595 35.1025 29.544 36.4215 28.0446 35.5567L19.9992 30.9163C19.3808 30.5596 18.6192 30.5596 18.0008 30.9163L9.9554 35.5567C8.45599 36.4215 6.64053 35.1025 6.99968 33.4092L8.92673 24.3237C9.07486 23.6253 8.83949 22.9009 8.30916 22.423L1.4098 16.2053C0.123977 15.0466 0.817424 12.9124 2.53879 12.7307L11.7751 11.7558C12.4851 11.6809 13.1013 11.2332 13.3919 10.5812L17.1733 2.09812Z" fill="#D9D9D9"/>
</svg>
