<svg width="143" height="143" viewBox="0 0 143 143" fill="none" xmlns="http://www.w3.org/2000/svg">
<circle cx="71.5" cy="71.5" r="71.5" fill="#EBEBEB"/>
<path d="M39.2871 99.3809H41.1562L46.9141 115H44.873L40.2217 101.701L35.5703 115H33.5293L39.2871 99.3809ZM36.1826 109.629H44.4004V111.391H36.1826V109.629ZM50.3516 113.313H54.4766C55.0352 113.313 55.4541 113.177 55.7334 112.905C56.0199 112.633 56.1631 112.232 56.1631 111.702V111.67C56.1631 111.111 56.0199 110.689 55.7334 110.402C55.4541 110.109 55.0352 109.962 54.4766 109.962H50.3516V108.308H54.4766C54.9635 108.308 55.3324 108.197 55.583 107.975C55.8337 107.753 55.959 107.423 55.959 106.986C55.959 106.514 55.8337 106.152 55.583 105.901C55.3395 105.651 54.9779 105.525 54.498 105.525H50.3516V103.85H54.5732C55.6403 103.85 56.4531 104.097 57.0117 104.591C57.5703 105.085 57.8496 105.805 57.8496 106.75C57.8496 107.409 57.6777 107.942 57.334 108.351C56.9974 108.759 56.5068 109.024 55.8623 109.146C56.5713 109.296 57.112 109.615 57.4844 110.102C57.8639 110.581 58.0537 111.204 58.0537 111.971V112.003C58.0537 112.984 57.7529 113.729 57.1514 114.237C56.557 114.746 55.6868 115 54.541 115H50.3516V113.313ZM49.0625 103.85H50.9209V115H49.0625V103.85ZM67.5283 107.932C67.5283 107.115 67.3099 106.481 66.873 106.03C66.4362 105.579 65.8167 105.354 65.0146 105.354C64.5277 105.354 64.0514 105.432 63.5859 105.59C63.1204 105.74 62.7051 105.955 62.3398 106.234L60.9756 105.3C61.3981 104.791 61.9531 104.397 62.6406 104.118C63.3353 103.832 64.1051 103.688 64.9502 103.688C65.874 103.688 66.6654 103.853 67.3242 104.183C67.9831 104.505 68.4844 104.978 68.8281 105.601C69.1719 106.216 69.3438 106.961 69.3438 107.835V115H67.5283V107.932ZM64.5312 115.161C63.1921 115.161 62.1715 114.868 61.4697 114.28C60.7751 113.693 60.4277 112.837 60.4277 111.713C60.4277 110.632 60.7464 109.812 61.3838 109.253C62.0283 108.687 62.9629 108.404 64.1875 108.404H67.625L67.7754 110.005H64.1982C63.5537 110.005 63.0632 110.152 62.7266 110.445C62.39 110.732 62.2217 111.154 62.2217 111.713C62.2217 112.307 62.4365 112.762 62.8662 113.077C63.3031 113.385 63.9368 113.539 64.7676 113.539C65.6699 113.539 66.3538 113.446 66.8193 113.26C67.292 113.074 67.5283 112.798 67.5283 112.433L67.7539 113.947C67.5462 114.212 67.2848 114.434 66.9697 114.613C66.6546 114.792 66.293 114.928 65.8848 115.021C65.4766 115.115 65.0254 115.161 64.5312 115.161ZM74.7793 104.752H76.6484V115H74.7793V104.752ZM71.3848 103.85H80.043V105.558H71.3848V103.85ZM89.5068 107.932C89.5068 107.115 89.2884 106.481 88.8516 106.03C88.4147 105.579 87.7952 105.354 86.9932 105.354C86.5062 105.354 86.0299 105.432 85.5645 105.59C85.099 105.74 84.6836 105.955 84.3184 106.234L82.9541 105.3C83.3766 104.791 83.9316 104.397 84.6191 104.118C85.3138 103.832 86.0837 103.688 86.9287 103.688C87.8525 103.688 88.6439 103.853 89.3027 104.183C89.9616 104.505 90.4629 104.978 90.8066 105.601C91.1504 106.216 91.3223 106.961 91.3223 107.835V115H89.5068V107.932ZM86.5098 115.161C85.1706 115.161 84.1501 114.868 83.4482 114.28C82.7536 113.693 82.4062 112.837 82.4062 111.713C82.4062 110.632 82.7249 109.812 83.3623 109.253C84.0068 108.687 84.9414 108.404 86.166 108.404H89.6035L89.7539 110.005H86.1768C85.5322 110.005 85.0417 110.152 84.7051 110.445C84.3685 110.732 84.2002 111.154 84.2002 111.713C84.2002 112.307 84.415 112.762 84.8447 113.077C85.2816 113.385 85.9154 113.539 86.7461 113.539C87.6484 113.539 88.3324 113.446 88.7979 113.26C89.2705 113.074 89.5068 112.798 89.5068 112.433L89.7324 113.947C89.5247 114.212 89.2633 114.434 88.9482 114.613C88.6331 114.792 88.2715 114.928 87.8633 115.021C87.4551 115.115 87.0039 115.161 86.5098 115.161ZM94.6523 103.85H96.5215V119.533H94.6523V103.85ZM99.6475 115.161C98.8525 115.161 98.1722 115.004 97.6064 114.688C97.0479 114.373 96.6361 113.894 96.3711 113.249L96.5215 110.918C96.5215 111.398 96.6217 111.835 96.8223 112.229C97.0228 112.622 97.3128 112.934 97.6924 113.163C98.0719 113.392 98.5195 113.507 99.0352 113.507C99.8659 113.507 100.507 113.26 100.958 112.766C101.409 112.264 101.635 111.562 101.635 110.66V108.243C101.635 107.319 101.409 106.607 100.958 106.105C100.507 105.597 99.8659 105.343 99.0352 105.343C98.5195 105.343 98.0719 105.454 97.6924 105.676C97.3128 105.898 97.0228 106.202 96.8223 106.589C96.6217 106.976 96.5215 107.405 96.5215 107.878L96.2959 105.729C96.6611 105.042 97.1374 104.53 97.7246 104.193C98.319 103.857 98.9958 103.688 99.7549 103.688C100.543 103.688 101.216 103.868 101.774 104.226C102.34 104.576 102.77 105.092 103.063 105.772C103.357 106.453 103.504 107.273 103.504 108.232V110.66C103.504 111.605 103.354 112.415 103.053 113.088C102.752 113.761 102.312 114.277 101.731 114.635C101.151 114.986 100.457 115.161 99.6475 115.161Z" fill="#A0A0A0"/>
</svg>
