<svg width="28" height="28" viewBox="0 0 28 28" fill="none" xmlns="http://www.w3.org/2000/svg">
<g clip-path="url(#clip0_935_59)">
<path d="M21.7653 1.08492L7.54128 15.3089C6.99801 15.8493 6.56732 16.492 6.27414 17.1999C5.98096 17.9078 5.83111 18.6669 5.83328 19.4331V20.9999C5.83328 21.3093 5.95619 21.6061 6.17498 21.8249C6.39378 22.0437 6.69052 22.1666 6.99994 22.1666H8.56678C9.333 22.1688 10.092 22.0189 10.8 21.7257C11.5079 21.4325 12.1506 21.0019 12.6909 20.4586L26.9149 6.23459C27.5967 5.55112 27.9796 4.62514 27.9796 3.65975C27.9796 2.69437 27.5967 1.76839 26.9149 1.08492C26.2216 0.422131 25.2993 0.0522461 24.3401 0.0522461C23.3809 0.0522461 22.4587 0.422131 21.7653 1.08492ZM25.2653 4.58492L11.0413 18.8089C10.3834 19.4628 9.49428 19.8308 8.56678 19.8333H8.16661V19.4331C8.16904 18.5056 8.5371 17.6164 9.19094 16.9586L23.4149 2.73459C23.6641 2.49654 23.9955 2.3637 24.3401 2.3637C24.6847 2.3637 25.0161 2.49654 25.2653 2.73459C25.5102 2.98019 25.6478 3.31289 25.6478 3.65975C25.6478 4.00662 25.5102 4.33932 25.2653 4.58492Z" fill="#B6B6B6"/>
<path d="M26.8333 10.4755C26.5239 10.4755 26.2272 10.5984 26.0084 10.8172C25.7896 11.036 25.6667 11.3327 25.6667 11.6422V17.5H21C20.0717 17.5 19.1815 17.8687 18.5251 18.5251C17.8687 19.1815 17.5 20.0717 17.5 21V25.6667H5.83333C4.90508 25.6667 4.01484 25.2979 3.35846 24.6415C2.70208 23.9852 2.33333 23.0949 2.33333 22.1667V5.83333C2.33333 4.90508 2.70208 4.01484 3.35846 3.35846C4.01484 2.70208 4.90508 2.33333 5.83333 2.33333H16.3823C16.6918 2.33333 16.9885 2.21042 17.2073 1.99162C17.4261 1.77283 17.549 1.47609 17.549 1.16667C17.549 0.857247 17.4261 0.560501 17.2073 0.341709C16.9885 0.122916 16.6918 0 16.3823 0L5.83333 0C4.28681 0.0018525 2.80415 0.617029 1.71059 1.71059C0.617029 2.80415 0.0018525 4.28681 0 5.83333L0 22.1667C0.0018525 23.7132 0.617029 25.1959 1.71059 26.2894C2.80415 27.383 4.28681 27.9981 5.83333 28H19.0668C19.8332 28.0022 20.5925 27.8524 21.3006 27.5592C22.0087 27.266 22.6516 26.8353 23.1922 26.292L26.2908 23.191C26.8342 22.6507 27.265 22.008 27.5584 21.3001C27.8518 20.5922 28.0019 19.8331 28 19.0668V11.6422C28 11.3327 27.8771 11.036 27.6583 10.8172C27.4395 10.5984 27.1428 10.4755 26.8333 10.4755ZM21.5425 24.6423C21.0735 25.1102 20.4804 25.434 19.8333 25.5757V21C19.8333 20.6906 19.9562 20.3938 20.175 20.175C20.3938 19.9562 20.6906 19.8333 21 19.8333H25.5792C25.4348 20.4791 25.1114 21.0711 24.6458 21.5413L21.5425 24.6423Z" fill="#B6B6B6"/>
</g>
<defs>
<clipPath id="clip0_935_59">
<rect width="28" height="28" fill="white"/>
</clipPath>
</defs>
</svg>
