<svg width="28" height="28" viewBox="0 0 28 28" fill="none" xmlns="http://www.w3.org/2000/svg">
<path d="M22.1667 5.09091H19.8333V3.81818C19.8333 2.80554 19.4646 1.83437 18.8082 1.11832C18.1518 0.402272 17.2616 0 16.3333 0H3.5C2.57174 0 1.6815 0.402272 1.02513 1.11832C0.368749 1.83437 0 2.80554 0 3.81818L0 22.9091H2.38117C2.35115 23.1197 2.33516 23.3324 2.33333 23.5455C2.33333 24.7269 2.76354 25.8599 3.52931 26.6953C4.29509 27.5307 5.3337 28 6.41667 28C7.49963 28 8.53825 27.5307 9.30402 26.6953C10.0698 25.8599 10.5 24.7269 10.5 23.5455C10.4982 23.3324 10.4822 23.1197 10.4522 22.9091H17.5478C17.5178 23.1197 17.5018 23.3324 17.5 23.5455C17.5 24.7269 17.9302 25.8599 18.696 26.6953C19.4618 27.5307 20.5004 28 21.5833 28C22.6663 28 23.7049 27.5307 24.4707 26.6953C25.2365 25.8599 25.6667 24.7269 25.6667 23.5455C25.6648 23.3324 25.6488 23.1197 25.6188 22.9091H28V11.4545C27.9981 9.76742 27.383 8.14998 26.2894 6.95701C25.1959 5.76403 23.7132 5.09293 22.1667 5.09091ZM22.1667 7.63636C23.0949 7.63636 23.9852 8.03864 24.6415 8.75468C25.2979 9.47073 25.6667 10.4419 25.6667 11.4545V12.7273H19.8333V7.63636H22.1667ZM8.16667 23.5455C8.16667 24.0518 7.98229 24.5374 7.6541 24.8954C7.32591 25.2534 6.8808 25.4545 6.41667 25.4545C5.95254 25.4545 5.50742 25.2534 5.17923 24.8954C4.85104 24.5374 4.66667 24.0518 4.66667 23.5455C4.66738 23.3279 4.70414 23.1123 4.77517 22.9091H8.05817C8.12919 23.1123 8.16595 23.3279 8.16667 23.5455ZM17.5 20.3636H2.33333V3.81818C2.33333 3.48063 2.45625 3.15691 2.67504 2.91823C2.89383 2.67954 3.19058 2.54545 3.5 2.54545H16.3333C16.6428 2.54545 16.9395 2.67954 17.1583 2.91823C17.3771 3.15691 17.5 3.48063 17.5 3.81818V20.3636ZM23.3333 23.5455C23.3333 24.0518 23.149 24.5374 22.8208 24.8954C22.4926 25.2534 22.0475 25.4545 21.5833 25.4545C21.1192 25.4545 20.6741 25.2534 20.3459 24.8954C20.0177 24.5374 19.8333 24.0518 19.8333 23.5455C19.8338 23.3279 19.8706 23.1123 19.9418 22.9091H23.2248C23.2961 23.1123 23.3328 23.3279 23.3333 23.5455ZM19.8333 20.3636V15.2727H25.6667V20.3636H19.8333Z" fill="#B6B6B6"/>
</svg>
