<svg width="28" height="28" viewBox="0 0 28 28" fill="none" xmlns="http://www.w3.org/2000/svg">
<path d="M26.9745 10.5619L18.1253 1.70625C17.0301 0.613585 15.5466 0 14 0C12.4534 0 10.9699 0.613585 9.87467 1.70625L1.02551 10.5619C0.699343 10.8862 0.440745 11.272 0.26471 11.697C0.088675 12.122 -0.00129547 12.5778 1.40927e-05 13.0379V24.4979C1.40927e-05 25.4267 0.368763 26.3175 1.02514 26.9743C1.68152 27.631 2.57175 28 3.50001 28H24.5C25.4282 28 26.3185 27.631 26.9749 26.9743C27.6312 26.3175 28 25.4267 28 24.4979V13.0379C28.0013 12.5778 27.9113 12.122 27.7353 11.697C27.5593 11.272 27.3007 10.8862 26.9745 10.5619ZM17.5 25.6653H10.5V21.0729C10.5 20.144 10.8688 19.2533 11.5251 18.5965C12.1815 17.9397 13.0717 17.5708 14 17.5708C14.9283 17.5708 15.8185 17.9397 16.4749 18.5965C17.1312 19.2533 17.5 20.144 17.5 21.0729V25.6653ZM25.6667 24.4979C25.6667 24.8075 25.5437 25.1044 25.3249 25.3234C25.1062 25.5423 24.8094 25.6653 24.5 25.6653H19.8333V21.0729C19.8333 19.5248 19.2187 18.0402 18.1248 16.9456C17.0308 15.851 15.5471 15.236 14 15.236C12.4529 15.236 10.9692 15.851 9.87521 16.9456C8.78125 18.0402 8.16667 19.5248 8.16667 21.0729V25.6653H3.50001C3.19059 25.6653 2.89385 25.5423 2.67505 25.3234C2.45626 25.1044 2.33334 24.8075 2.33334 24.4979V13.0379C2.33443 12.7285 2.45723 12.432 2.67518 12.2125L11.5243 3.36041C12.182 2.70543 13.0721 2.33773 14 2.33773C14.9279 2.33773 15.818 2.70543 16.4757 3.36041L25.3248 12.216C25.5419 12.4346 25.6647 12.7297 25.6667 13.0379V24.4979Z" fill="#B6B6B6"/>
</svg>
