<svg width="28" height="28" viewBox="0 0 28 28" fill="none" xmlns="http://www.w3.org/2000/svg">
<path d="M28.0276 28H14.0348C11.3009 27.9987 8.62709 27.1986 6.3427 25.6981C4.05832 24.1977 2.26313 22.0626 1.17824 19.5556C0.0933562 17.0487 -0.233842 14.2795 0.236949 11.5891C0.707741 8.89873 1.95596 6.40467 3.82786 4.41413C5.69977 2.42359 8.1136 1.02351 10.772 0.386328C13.4305 -0.250851 16.2174 -0.0972949 18.7896 0.828083C21.3618 1.75346 23.6068 3.41024 25.2483 5.59436C26.8897 7.77848 27.8558 10.3945 28.0276 13.1203V13.1938V28ZM14.0348 2.33333C10.9375 2.33333 7.96712 3.5625 5.77703 5.75042C3.58694 7.93835 2.35657 10.9058 2.35657 14C2.35657 17.0942 3.58694 20.0617 5.77703 22.2496C7.96712 24.4375 10.9375 25.6667 14.0348 25.6667H25.6919V13.2312C25.4917 10.2775 24.177 7.50987 22.0132 5.4871C19.8495 3.46434 16.9981 2.3372 14.0348 2.33333Z" fill="#B6B6B6"/>
<path d="M15.1815 8.1665H8.17456V10.4998H15.1815V8.1665Z" fill="#B6B6B6"/>
<path d="M19.8528 12.8335H8.17456V15.1668H19.8528V12.8335Z" fill="#B6B6B6"/>
<path d="M19.8528 17.5H8.17456V19.8333H19.8528V17.5Z" fill="#B6B6B6"/>
</svg>
