<svg width="28" height="28" viewBox="0 0 28 28" fill="none" xmlns="http://www.w3.org/2000/svg">
<path d="M24.5 7H21C21 5.14348 20.2625 3.36301 18.9497 2.05025C17.637 0.737498 15.8565 0 14 0C12.1435 0 10.363 0.737498 9.05025 2.05025C7.7375 3.36301 7 5.14348 7 7H3.5C2.57174 7 1.6815 7.36875 1.02513 8.02513C0.368749 8.6815 0 9.57174 0 10.5L0 22.1667C0.0018525 23.7132 0.617029 25.1958 1.71059 26.2894C2.80415 27.383 4.28681 27.9981 5.83333 28H22.1667C23.7132 27.9981 25.1958 27.383 26.2894 26.2894C27.383 25.1958 27.9981 23.7132 28 22.1667V10.5C28 9.57174 27.6313 8.6815 26.9749 8.02513C26.3185 7.36875 25.4283 7 24.5 7ZM14 2.33333C15.2377 2.33333 16.4247 2.825 17.2998 3.70017C18.175 4.57534 18.6667 5.76232 18.6667 7H9.33333C9.33333 5.76232 9.825 4.57534 10.7002 3.70017C11.5753 2.825 12.7623 2.33333 14 2.33333ZM25.6667 22.1667C25.6667 23.0949 25.2979 23.9852 24.6415 24.6415C23.9852 25.2979 23.0949 25.6667 22.1667 25.6667H5.83333C4.90508 25.6667 4.01484 25.2979 3.35846 24.6415C2.70208 23.9852 2.33333 23.0949 2.33333 22.1667V10.5C2.33333 10.1906 2.45625 9.89383 2.67504 9.67504C2.89383 9.45625 3.19058 9.33333 3.5 9.33333H7V11.6667C7 11.9761 7.12292 12.2728 7.34171 12.4916C7.5605 12.7104 7.85725 12.8333 8.16667 12.8333C8.47609 12.8333 8.77283 12.7104 8.99162 12.4916C9.21042 12.2728 9.33333 11.9761 9.33333 11.6667V9.33333H18.6667V11.6667C18.6667 11.9761 18.7896 12.2728 19.0084 12.4916C19.2272 12.7104 19.5239 12.8333 19.8333 12.8333C20.1428 12.8333 20.4395 12.7104 20.6583 12.4916C20.8771 12.2728 21 11.9761 21 11.6667V9.33333H24.5C24.8094 9.33333 25.1062 9.45625 25.325 9.67504C25.5438 9.89383 25.6667 10.1906 25.6667 10.5V22.1667Z" fill="white"/>
</svg>
