<svg width="28" height="28" viewBox="0 0 28 28" fill="none" xmlns="http://www.w3.org/2000/svg">
<path d="M26.8333 12.8333H22.0733C21.9824 12.1905 21.8144 11.5611 21.5728 10.9585L25.6877 8.57383C25.8252 8.49983 25.9465 8.39896 26.0443 8.27722C26.1421 8.15548 26.2145 8.01534 26.2571 7.8651C26.2998 7.71487 26.3118 7.5576 26.2926 7.40262C26.2733 7.24764 26.2231 7.09811 26.145 6.96288C26.0669 6.82765 25.9624 6.70949 25.8378 6.61539C25.7131 6.52129 25.5709 6.45317 25.4194 6.41507C25.268 6.37697 25.1104 6.36966 24.9561 6.39358C24.8018 6.41751 24.6538 6.47217 24.521 6.55433L20.4027 8.9425C20.009 8.44517 19.5592 7.99496 19.0622 7.60083L21.4492 3.48133C21.5929 3.21423 21.627 2.90164 21.5441 2.60985C21.4613 2.31805 21.2681 2.06999 21.0054 1.91826C20.7428 1.76653 20.4313 1.72305 20.1372 1.79706C19.843 1.87106 19.5893 2.05671 19.4297 2.31467L17.0415 6.42717C16.439 6.18534 15.8095 6.01729 15.1667 5.92667V1.16667C15.1667 0.857247 15.0437 0.560501 14.825 0.341709C14.6062 0.122916 14.3094 0 14 0C13.6906 0 13.3938 0.122916 13.175 0.341709C12.9562 0.560501 12.8333 0.857247 12.8333 1.16667V5.92667C12.1905 6.01729 11.561 6.18534 10.9585 6.42717L8.57383 2.31233C8.41425 2.05438 8.16047 1.86872 7.86631 1.79472C7.57215 1.72072 7.26073 1.7642 6.99809 1.91593C6.73544 2.06766 6.54221 2.31572 6.45937 2.60751C6.37653 2.89931 6.41059 3.21189 6.55433 3.479L8.94133 7.60083C8.44434 7.99496 7.99453 8.44517 7.60083 8.9425L3.4825 6.55433C3.34969 6.47217 3.20174 6.41751 3.04741 6.39358C2.89308 6.36966 2.73552 6.37697 2.58407 6.41507C2.43262 6.45317 2.29036 6.52129 2.16572 6.61539C2.04108 6.70949 1.93661 6.82765 1.85849 6.96288C1.78037 7.09811 1.73019 7.24764 1.71093 7.40262C1.69168 7.5576 1.70373 7.71487 1.74638 7.8651C1.78903 8.01534 1.86141 8.15548 1.95923 8.27722C2.05705 8.39896 2.17831 8.49983 2.31583 8.57383L6.42717 10.9585C6.1856 11.5611 6.01756 12.1905 5.92667 12.8333H1.16667C0.857247 12.8333 0.560501 12.9562 0.341709 13.175C0.122916 13.3938 0 13.6906 0 14C0 14.3094 0.122916 14.6062 0.341709 14.825C0.560501 15.0437 0.857247 15.1667 1.16667 15.1667H5.92667C6.01756 15.8095 6.1856 16.4389 6.42717 17.0415L2.31233 19.4262C2.17481 19.5002 2.05355 19.601 1.95573 19.7228C1.85791 19.8445 1.78553 19.9847 1.74288 20.1349C1.70023 20.2851 1.68818 20.4424 1.70743 20.5974C1.72669 20.7524 1.77687 20.9019 1.85499 21.0371C1.93311 21.1723 2.03758 21.2905 2.16222 21.3846C2.28686 21.4787 2.42912 21.5468 2.58057 21.5849C2.73202 21.623 2.88958 21.6303 3.04391 21.6064C3.19824 21.5825 3.34619 21.5278 3.479 21.4457L7.59733 19.0575C7.99103 19.5548 8.44084 20.005 8.93783 20.3992L6.55433 24.5187C6.41059 24.7858 6.37653 25.0984 6.45937 25.3902C6.54221 25.6819 6.73544 25.93 6.99809 26.0817C7.26073 26.2335 7.57215 26.2769 7.86631 26.2029C8.16047 26.1289 8.41425 25.9433 8.57383 25.6853L10.9585 21.5705C11.561 21.8126 12.1905 21.9814 12.8333 22.0733V26.8333C12.8333 27.1428 12.9562 27.4395 13.175 27.6583C13.3938 27.8771 13.6906 28 14 28C14.3094 28 14.6062 27.8771 14.825 27.6583C15.0437 27.4395 15.1667 27.1428 15.1667 26.8333V22.0733C15.8094 21.9822 16.4389 21.8141 17.0415 21.5728L19.4262 25.6877C19.5858 25.9456 19.8395 26.1313 20.1337 26.2053C20.4278 26.2793 20.7393 26.2358 21.0019 26.0841C21.2646 25.9323 21.4578 25.6843 21.5406 25.3925C21.6235 25.1007 21.5894 24.7881 21.4457 24.521L19.0587 20.4015C19.5557 20.0074 20.0055 19.5572 20.3992 19.0598L24.5175 21.448C24.6503 21.5302 24.7983 21.5848 24.9526 21.6087C25.1069 21.6327 25.2645 21.6254 25.4159 21.5873C25.5674 21.5492 25.7096 21.481 25.8343 21.3869C25.9589 21.2928 26.0634 21.1747 26.1415 21.0394C26.2196 20.9042 26.2698 20.7547 26.2891 20.5997C26.3083 20.4447 26.2963 20.2875 26.2536 20.1372C26.211 19.987 26.1386 19.8469 26.0408 19.7251C25.943 19.6034 25.8217 19.5025 25.6842 19.4285L21.5693 17.0438C21.8123 16.4407 21.9815 15.8104 22.0733 15.1667H26.8333C27.1428 15.1667 27.4395 15.0437 27.6583 14.825C27.8771 14.6062 28 14.3094 28 14C28 13.6906 27.8771 13.3938 27.6583 13.175C27.4395 12.9562 27.1428 12.8333 26.8333 12.8333ZM14 19.8333C6.29067 19.5883 6.293 8.4105 14 8.16667C21.7093 8.41167 21.707 19.5895 14 19.8333Z" fill="#B6B6B6"/>
</svg>
