<svg width="25" height="25" viewBox="0 0 25 25" fill="none" xmlns="http://www.w3.org/2000/svg">
<path d="M14.7092 12.5L24.5422 22.3319C25.1526 22.9422 25.1526 23.9318 24.5422 24.5422C23.9318 25.1525 22.9422 25.1525 22.3319 24.5422L12.5 14.7093L2.66809 24.5422C2.05771 25.1525 1.06811 25.1525 0.457782 24.5422C-0.152545 23.9318 -0.152594 22.9422 0.457782 22.3319L10.2907 12.5L0.457782 2.66809C-0.152594 2.05771 -0.152594 1.06811 0.457782 0.457781C1.06816 -0.152546 2.05776 -0.152594 2.66809 0.457781L12.5 10.2907L22.3318 0.457781C22.9422 -0.152594 23.9318 -0.152594 24.5421 0.457781C25.1525 1.06816 25.1525 2.05776 24.5421 2.66809L14.7092 12.5Z" fill="#C4C4C4"/>
</svg>
