<svg width="46" height="46" viewBox="0 0 46 46" fill="none" xmlns="http://www.w3.org/2000/svg">
<g clip-path="url(#clip0_1182_2)">
<path d="M17.25 7.66667C17.25 3.43275 23.6862 0 31.625 0C39.5638 0 46 3.43275 46 7.66667C46 11.9006 39.5638 15.3333 31.625 15.3333C23.6862 15.3333 17.25 11.9006 17.25 7.66667ZM31.625 19.1667C29.6566 19.1667 27.7897 18.9463 26.0839 18.5629C23.4792 16.6098 19.2107 15.3333 14.375 15.3333C6.43617 15.3333 0 18.7661 0 23C0 27.2339 6.43617 30.6667 14.375 30.6667C22.3138 30.6667 28.75 27.2339 28.75 23C28.75 22.9444 28.7366 22.8907 28.7347 22.8352H28.75V26.8333C28.75 31.0672 22.3138 34.5 14.375 34.5C6.43617 34.5 0 31.0672 0 26.8333V30.6667C0 34.9006 6.43617 38.3333 14.375 38.3333C22.3138 38.3333 28.75 34.9006 28.75 30.6667V34.5C28.75 38.7339 22.3138 42.1667 14.375 42.1667C6.43617 42.1667 0 38.7339 0 34.5V38.3333C0 42.5672 6.43617 46 14.375 46C22.3138 46 28.75 42.5672 28.75 38.3333V38.18C29.6796 38.2797 30.6398 38.3333 31.625 38.3333C39.5638 38.3333 46 34.9006 46 30.6667V26.8333C46 30.8947 40.0737 34.2106 32.5833 34.4751V30.6418C40.0737 30.3773 46 27.0633 46 23V19.1667C46 23.2281 40.0737 26.5439 32.5833 26.8084V22.9751C40.0737 22.7106 46 19.3967 46 15.3333V11.5C46 15.7339 39.5638 19.1667 31.625 19.1667Z" fill="#FF543D"/>
</g>
<defs>
<clipPath id="clip0_1182_2">
<rect width="46" height="46" fill="white"/>
</clipPath>
</defs>
</svg>
