<svg width="23" height="23" viewBox="0 0 23 23" fill="none" xmlns="http://www.w3.org/2000/svg">
<path d="M4.7915 18.2083H9.02159L22.0961 5.13377C22.6562 4.57235 22.9707 3.81173 22.9707 3.01873C22.9707 2.22573 22.6562 1.46511 22.0961 0.903689C21.5266 0.359254 20.769 0.0554199 19.9811 0.0554199C19.1932 0.0554199 18.4356 0.359254 17.866 0.903689L4.7915 13.9782V18.2083ZM6.70817 14.7717L19.2211 2.25877C19.4258 2.06323 19.698 1.95411 19.9811 1.95411C20.2642 1.95411 20.5364 2.06323 20.741 2.25877C20.9422 2.46052 21.0552 2.73381 21.0552 3.01873C21.0552 3.30365 20.9422 3.57695 20.741 3.77869L8.22809 16.2916H6.70817V14.7717Z" fill="#FF4026"/>
<path d="M22.6368 7.30442L21.0833 8.85787V15.3333H15.3333V21.0833H1.91667V2.875C1.91667 2.62083 2.01763 2.37708 2.19736 2.19736C2.37708 2.01763 2.62083 1.91667 2.875 1.91667H14.1431L15.6965 0.363208C15.8365 0.233473 15.984 0.112188 16.1383 0L2.875 0C2.1125 0 1.38124 0.302901 0.842068 0.842068C0.302901 1.38124 0 2.1125 0 2.875L0 23H17.6467L23 17.6467V6.86262C22.8876 7.01679 22.7663 7.1643 22.6368 7.30442V7.30442ZM17.25 20.6866V17.25H20.6866L17.25 20.6866Z" fill="#FF4026"/>
</svg>
