<svg width="23" height="22" viewBox="0 0 23 22" fill="none" xmlns="http://www.w3.org/2000/svg">
<path d="M18.2083 3.83333H16.2917V2.875C16.2917 2.1125 15.9888 1.38124 15.4496 0.842068C14.9104 0.302901 14.1792 0 13.4167 0H2.875C2.1125 0 1.38124 0.302901 0.842068 0.842068C0.302901 1.38124 0 2.1125 0 2.875L0 17.25H1.95596C1.9313 17.4086 1.91817 17.5687 1.91667 17.7292C1.91667 18.6187 2.27005 19.4719 2.89908 20.1009C3.52811 20.73 4.38125 21.0833 5.27083 21.0833C6.16041 21.0833 7.01356 20.73 7.64259 20.1009C8.27162 19.4719 8.625 18.6187 8.625 17.7292C8.6235 17.5687 8.61037 17.4086 8.58571 17.25H14.4143C14.3896 17.4086 14.3765 17.5687 14.375 17.7292C14.375 18.6187 14.7284 19.4719 15.3574 20.1009C15.9864 20.73 16.8396 21.0833 17.7292 21.0833C18.6187 21.0833 19.4719 20.73 20.1009 20.1009C20.7299 19.4719 21.0833 18.6187 21.0833 17.7292C21.0818 17.5687 21.0687 17.4086 21.044 17.25H23V8.625C22.9985 7.35464 22.4932 6.13674 21.5949 5.23846C20.6966 4.34018 19.4787 3.83486 18.2083 3.83333V3.83333ZM18.2083 5.75C18.9708 5.75 19.7021 6.0529 20.2413 6.59207C20.7804 7.13124 21.0833 7.8625 21.0833 8.625V9.58333H16.2917V5.75H18.2083ZM6.70833 17.7292C6.70833 18.1104 6.55688 18.476 6.2873 18.7456C6.01772 19.0152 5.65208 19.1667 5.27083 19.1667C4.88958 19.1667 4.52395 19.0152 4.25437 18.7456C3.98478 18.476 3.83333 18.1104 3.83333 17.7292C3.83392 17.5654 3.86412 17.403 3.92246 17.25H6.61921C6.67755 17.403 6.70774 17.5654 6.70833 17.7292V17.7292ZM14.375 15.3333H1.91667V2.875C1.91667 2.62083 2.01763 2.37708 2.19736 2.19736C2.37708 2.01763 2.62083 1.91667 2.875 1.91667H13.4167C13.6708 1.91667 13.9146 2.01763 14.0943 2.19736C14.274 2.37708 14.375 2.62083 14.375 2.875V15.3333ZM19.1667 17.7292C19.1667 18.1104 19.0152 18.476 18.7456 18.7456C18.476 19.0152 18.1104 19.1667 17.7292 19.1667C17.3479 19.1667 16.9823 19.0152 16.7127 18.7456C16.4431 18.476 16.2917 18.1104 16.2917 17.7292C16.2921 17.5654 16.3223 17.403 16.3808 17.25H19.0775C19.136 17.403 19.1662 17.5654 19.1667 17.7292V17.7292ZM16.2917 15.3333V11.5H21.0833V15.3333H16.2917Z" fill="#FF4026"/>
</svg>
