<svg width="23" height="23" viewBox="0 0 23 23" fill="none" xmlns="http://www.w3.org/2000/svg">
<path d="M11.5 23C9.22552 23 7.00211 22.3255 5.11095 21.0619C3.21978 19.7983 1.7458 18.0022 0.87539 15.9009C0.00498279 13.7995 -0.222756 11.4872 0.220974 9.25647C0.664704 7.02568 1.75997 4.97658 3.36828 3.36828C4.97658 1.75997 7.02568 0.664704 9.25647 0.220974C11.4872 -0.222756 13.7995 0.00498279 15.9009 0.87539C18.0022 1.7458 19.7983 3.21978 21.0619 5.11095C22.3255 7.00211 23 9.22552 23 11.5C22.9967 14.549 21.784 17.4721 19.6281 19.6281C17.4721 21.784 14.549 22.9967 11.5 23V23ZM11.5 1.91667C9.6046 1.91667 7.75176 2.47872 6.17579 3.53175C4.59982 4.58478 3.3715 6.0815 2.64616 7.83262C1.92082 9.58375 1.73104 11.5106 2.10081 13.3696C2.47059 15.2286 3.38331 16.9362 4.72356 18.2764C6.06382 19.6167 7.7714 20.5294 9.63039 20.8992C11.4894 21.269 13.4163 21.0792 15.1674 20.3539C16.9185 19.6285 18.4152 18.4002 19.4683 16.8242C20.5213 15.2482 21.0833 13.3954 21.0833 11.5C21.0805 8.9592 20.07 6.52327 18.2734 4.72665C16.4767 2.93003 14.0408 1.91946 11.5 1.91667V1.91667Z" fill="#FF4026"/>
<path d="M13.4168 18.2084H11.5002V11.5H9.5835V9.58337H11.5002C12.0085 9.58337 12.496 9.78531 12.8555 10.1448C13.2149 10.5042 13.4168 10.9917 13.4168 11.5V18.2084Z" fill="#FF4026"/>
<path d="M11.5 7.66663C12.2939 7.66663 12.9375 7.02304 12.9375 6.22913C12.9375 5.43522 12.2939 4.79163 11.5 4.79163C10.7061 4.79163 10.0625 5.43522 10.0625 6.22913C10.0625 7.02304 10.7061 7.66663 11.5 7.66663Z" fill="#FF4026"/>
</svg>
