<svg width="23" height="23" viewBox="0 0 23 23" fill="none" xmlns="http://www.w3.org/2000/svg">
<path d="M12.7823 0.49208C12.4303 0.17529 11.9735 0 11.5 0C11.0265 0 10.5697 0.17529 10.2177 0.49208L0 9.68825V19.6549C0 20.4682 0.323094 21.2483 0.898206 21.8234C1.47332 22.3985 2.25334 22.7216 3.06667 22.7216H19.9333C20.7467 22.7216 21.5267 22.3985 22.1018 21.8234C22.6769 21.2483 23 20.4682 23 19.6549V9.68825L12.7823 0.49208ZM14.375 20.802H8.625V15.9855C8.625 15.223 8.9279 14.4917 9.46707 13.9525C10.0062 13.4134 10.7375 13.1105 11.5 13.1105C12.2625 13.1105 12.9938 13.4134 13.5329 13.9525C14.0721 14.4917 14.375 15.223 14.375 15.9855V20.802ZM21.0833 19.652C21.0833 19.957 20.9622 20.2495 20.7465 20.4652C20.5308 20.6809 20.2383 20.802 19.9333 20.802H16.2917V15.9855C16.2917 14.7146 15.7868 13.4958 14.8882 12.5972C13.9896 11.6986 12.7708 11.1938 11.5 11.1938C10.2292 11.1938 9.01039 11.6986 8.11178 12.5972C7.21317 13.4958 6.70833 14.7146 6.70833 15.9855V20.802H3.06667C2.76167 20.802 2.46916 20.6809 2.25349 20.4652C2.03783 20.2495 1.91667 19.957 1.91667 19.652V10.5412L11.5 1.91616L21.0833 10.5412V19.652Z" fill="#FF4026"/>
</svg>
