<svg width="23" height="23" viewBox="0 0 23 23" fill="none" xmlns="http://www.w3.org/2000/svg">
<g clip-path="url(#clip0_919_13)">
<path d="M23.0002 23H11.5175C9.27401 22.9989 7.07985 22.3417 5.20524 21.1092C3.33064 19.8767 1.85747 18.1228 0.967197 16.0635C0.0769198 14.0043 -0.191585 11.7296 0.194755 9.51963C0.581095 7.30967 1.60541 5.26098 3.14152 3.6259C4.67764 1.99081 6.65847 0.840738 8.84003 0.317341C11.0216 -0.206056 13.3086 -0.0799208 15.4194 0.680211C17.5302 1.44034 19.3725 2.80127 20.7195 4.59537C22.0665 6.38947 22.8593 8.53838 23.0002 10.7774V10.8378V23ZM11.5175 1.91667C8.97582 1.91667 6.53827 2.92634 4.74104 4.72356C2.94382 6.52078 1.93415 8.95834 1.93415 11.5C1.93415 14.0417 2.94382 16.4792 4.74104 18.2764C6.53827 20.0737 8.97582 21.0833 11.5175 21.0833H21.0836V10.8685C20.9192 8.44226 19.8403 6.16882 18.0648 4.50726C16.2892 2.84571 13.9492 1.91985 11.5175 1.91667V1.91667Z" fill="#FF4026"/>
<path d="M12.4585 6.70837H6.7085V8.62504H12.4585V6.70837Z" fill="#FF4026"/>
<path d="M16.2918 10.5416H6.7085V12.4583H16.2918V10.5416Z" fill="#FF4026"/>
<path d="M16.2918 14.375H6.7085V16.2917H16.2918V14.375Z" fill="#FF4026"/>
</g>
<defs>
<clipPath id="clip0_919_13">
<rect width="23" height="23" fill="white"/>
</clipPath>
</defs>
</svg>
