<svg width="23" height="23" viewBox="0 0 23 23" fill="none" xmlns="http://www.w3.org/2000/svg">
<g clip-path="url(#clip0_919_24)">
<path d="M23 2.875H4.06525L4.025 2.53863C3.94263 1.83944 3.60658 1.19479 3.08055 0.726875C2.55453 0.258964 1.8751 0.000327552 1.17108 0L0 0V1.91667H1.17108C1.40581 1.9167 1.63236 2.00287 1.80777 2.15885C1.98318 2.31483 2.09525 2.52976 2.12271 2.76288L3.64167 15.6697C3.72404 16.3689 4.06009 17.0135 4.58611 17.4815C5.11214 17.9494 5.79156 18.208 6.49558 18.2083H19.1667V16.2917H6.49558C6.26071 16.2916 6.03403 16.2053 5.8586 16.0491C5.68317 15.893 5.5712 15.6778 5.54396 15.4445L5.41842 14.375H20.9262L23 2.875ZM19.3238 12.4583H5.19321L4.29142 4.79167H20.7067L19.3238 12.4583Z" fill="#FF4026"/>
<path d="M6.70817 23C7.76672 23 8.62484 22.1418 8.62484 21.0833C8.62484 20.0247 7.76672 19.1666 6.70817 19.1666C5.64962 19.1666 4.7915 20.0247 4.7915 21.0833C4.7915 22.1418 5.64962 23 6.70817 23Z" fill="#FF4026"/>
<path d="M16.2917 23C17.3502 23 18.2083 22.1418 18.2083 21.0833C18.2083 20.0247 17.3502 19.1666 16.2917 19.1666C15.2331 19.1666 14.375 20.0247 14.375 21.0833C14.375 22.1418 15.2331 23 16.2917 23Z" fill="#FF4026"/>
</g>
<defs>
<clipPath id="clip0_919_24">
<rect width="23" height="23" fill="white"/>
</clipPath>
</defs>
</svg>
