<svg width="22" height="21" viewBox="0 0 22 21" fill="none" xmlns="http://www.w3.org/2000/svg">
<path d="M16.0396 0C15.0078 0.0164268 13.9985 0.311238 13.1137 0.85466C12.2288 1.39808 11.4997 2.17087 11 3.09499C10.5003 2.17087 9.77118 1.39808 8.88632 0.85466C8.00146 0.311238 6.99216 0.0164268 5.96037 0C4.31556 0.0731457 2.76589 0.809626 1.64991 2.04854C0.533927 3.28746 -0.0576437 4.9281 0.00443589 6.61203C0.00443589 12.9661 10.0434 20.305 10.4704 20.6164L11 21L11.5296 20.6164C11.9566 20.3069 21.9956 12.9661 21.9956 6.61203C22.0576 4.9281 21.4661 3.28746 20.3501 2.04854C19.2341 0.809626 17.6844 0.0731457 16.0396 0V0ZM11 18.6909C8.01929 16.4119 1.83703 10.8128 1.83703 6.61203C1.77439 5.42535 2.17273 4.26146 2.94517 3.3742C3.7176 2.48694 4.80147 1.9483 5.96037 1.87575C7.11927 1.9483 8.20313 2.48694 8.97557 3.3742C9.748 4.26146 10.1463 5.42535 10.0837 6.61203H11.9163C11.8537 5.42535 12.252 4.26146 13.0244 3.3742C13.7969 2.48694 14.8807 1.9483 16.0396 1.87575C17.1985 1.9483 18.2824 2.48694 19.0548 3.3742C19.8273 4.26146 20.2256 5.42535 20.163 6.61203C20.163 10.8147 13.9807 16.4119 11 18.6909Z" fill="#A0A0A0"/>
</svg>
